<?xml version="1.0" encoding="UTF-8"?>
<!DOCTYPE svg PUBLIC "-//W3C//DTD SVG 1.1//EN" "http://www.w3.org/Graphics/SVG/1.1/DTD/svg11.dtd">
<svg xmlns="http://www.w3.org/2000/svg" version="1.1" width="500px" height="500px" style="shape-rendering:geometricPrecision; text-rendering:geometricPrecision; image-rendering:optimizeQuality; fill-rule:evenodd; clip-rule:evenodd" xmlns:xlink="http://www.w3.org/1999/xlink">
<g><path style="opacity:0.967" fill="#dbd6d1" d="M 154.5,181.5 C 154.5,182.5 154.5,183.5 154.5,184.5C 153.325,184.719 152.325,184.386 151.5,183.5C 150.194,179.554 148.361,175.888 146,172.5C 145.184,171.177 144.017,170.511 142.5,170.5C 138.415,167.568 133.748,165.568 128.5,164.5C 123.074,165.179 117.74,166.346 112.5,168C 109.964,170.705 107.297,173.205 104.5,175.5C 102.163,177.965 100.663,180.965 100,184.5C 99.3292,185.252 98.4959,185.586 97.5,185.5C 97.1398,177.05 100.473,170.216 107.5,165C 119.938,157.45 132.605,157.783 145.5,166C 150.445,170.095 153.445,175.262 154.5,181.5 Z M 127.5,180.5 C 127.436,181.365 127.103,182.365 126.5,183.5C 125.351,183.209 124.684,182.376 124.5,181C 125.033,177.935 126.033,177.768 127.5,180.5 Z M 117.5,174.5 C 119.97,175.36 120.137,176.694 118,178.5C 117.51,177.207 117.343,175.873 117.5,174.5 Z M 113.5,173.5 C 114.097,173.735 114.43,174.235 114.5,175C 113.839,177.464 113.339,179.964 113,182.5C 112.366,179.445 112.532,176.445 113.5,173.5 Z"/></g>
<g><path style="opacity:1" fill="#ddd2ce" d="M 144.5,177.5 C 145.338,177.842 145.672,178.508 145.5,179.5C 146.321,182.554 146.321,185.554 145.5,188.5C 139.683,185.23 137.849,180.23 140,173.5C 141.371,175.041 142.871,176.375 144.5,177.5 Z"/></g>
<g><path style="opacity:0.965" fill="#e1d8d5" d="M 108.5,175.5 C 108.5,175.167 108.5,174.833 108.5,174.5C 109.5,174.5 110.5,174.5 111.5,174.5C 111.823,178.226 111.489,181.893 110.5,185.5C 109.167,186.167 107.833,186.833 106.5,187.5C 105.328,183.17 106.328,179.336 109.5,176C 109.272,175.601 108.938,175.435 108.5,175.5 Z"/></g>
<g><path style="opacity:0.341" fill="#95979a" d="M 144.5,177.5 C 142.871,176.375 141.371,175.041 140,173.5C 137.849,180.23 139.683,185.23 145.5,188.5C 146.321,185.554 146.321,182.554 145.5,179.5C 146.972,181.117 147.639,183.117 147.5,185.5C 147.674,187.693 147.007,189.527 145.5,191C 146.305,192.113 146.972,193.279 147.5,194.5C 146.883,194.611 146.383,194.944 146,195.5C 141.641,186.593 135.641,185.26 128,191.5C 126.953,194.466 126.119,197.466 125.5,200.5C 125.833,201.833 126.167,201.833 126.5,200.5C 133.615,208.402 140.282,208.069 146.5,199.5C 146.5,201.167 146.5,202.833 146.5,204.5C 145.609,205.11 144.609,205.443 143.5,205.5C 142.833,205.5 142.5,205.833 142.5,206.5C 139.674,210.281 138.841,214.614 140,219.5C 140.671,218.748 141.504,218.414 142.5,218.5C 141.167,219.833 141.167,221.167 142.5,222.5C 144.026,221.895 145.026,220.729 145.5,219C 144.342,215.824 144.342,212.657 145.5,209.5C 147.691,208.709 149.691,208.709 151.5,209.5C 149.97,210.067 148.47,210.733 147,211.5C 146.238,215.587 146.404,219.587 147.5,223.5C 145.641,223.461 144.308,224.294 143.5,226C 145.323,225.973 146.99,226.807 148.5,228.5C 146.902,230.857 145.902,233.523 145.5,236.5C 145.799,234.396 145.466,232.396 144.5,230.5C 143.571,231.689 143.238,233.022 143.5,234.5C 142.679,231.359 142.179,228.025 142,224.5C 138.185,228.072 134.185,231.405 130,234.5C 129.333,235.5 129.333,236.5 130,237.5C 131.669,238.846 132.836,240.513 133.5,242.5C 132.624,242.369 131.957,242.702 131.5,243.5C 132.614,244.776 133.614,244.776 134.5,243.5C 136.097,244.09 137.431,245.09 138.5,246.5C 139.801,244.556 140.801,242.556 141.5,240.5C 140.641,245.592 139.974,250.592 139.5,255.5C 135.333,259.167 131.167,262.833 127,266.5C 123.679,264.512 121.012,261.846 119,258.5C 117.667,261.167 116.333,261.167 115,258.5C 113.177,255.758 112.677,252.925 113.5,250C 112.5,249.167 111.5,248.333 110.5,247.5C 110.624,246.893 110.957,246.56 111.5,246.5C 112.117,246.611 112.617,246.944 113,247.5C 115.63,243.868 118.63,240.535 122,237.5C 122.47,236.423 122.303,235.423 121.5,234.5C 124.61,236.145 127.276,235.645 129.5,233C 127.236,232.764 125.069,232.264 123,231.5C 122.005,232.066 121.172,232.733 120.5,233.5C 116.703,232.041 114.369,229.374 113.5,225.5C 114.547,224.922 114.38,224.256 113,223.5C 112.536,224.094 112.369,224.761 112.5,225.5C 112.565,225.938 112.399,226.272 112,226.5C 111.184,225.177 110.017,224.511 108.5,224.5C 108.167,224.5 107.833,224.5 107.5,224.5C 107.721,223.265 108.388,222.265 109.5,221.5C 108.574,217.906 108.241,214.24 108.5,210.5C 110.094,213.061 111.094,216.061 111.5,219.5C 112.489,215.893 112.823,212.226 112.5,208.5C 110.071,208.415 108.071,207.415 106.5,205.5C 105.438,206.425 105.438,207.425 106.5,208.5C 105.167,208.833 105.167,209.167 106.5,209.5C 107.436,216.288 107.436,222.955 106.5,229.5C 104.958,228.699 103.292,228.366 101.5,228.5C 101.953,227.542 102.619,226.708 103.5,226C 102.906,225.536 102.239,225.369 101.5,225.5C 102.315,224.163 103.482,223.163 105,222.5C 105.825,218.789 105.659,215.122 104.5,211.5C 102.974,211.006 101.641,210.339 100.5,209.5C 101.901,209.029 103.234,208.362 104.5,207.5C 103.754,206.264 103.421,204.93 103.5,203.5C 104.239,203.631 104.906,203.464 105.5,203C 103.903,198.764 104.236,194.431 106.5,190C 105.296,188.647 104.629,186.981 104.5,185C 104.207,181.02 105.54,177.854 108.5,175.5C 108.938,175.435 109.272,175.601 109.5,176C 106.328,179.336 105.328,183.17 106.5,187.5C 107.833,186.833 109.167,186.167 110.5,185.5C 111.489,181.893 111.823,178.226 111.5,174.5C 110.5,174.5 109.5,174.5 108.5,174.5C 111.274,173.12 113.94,171.454 116.5,169.5C 117.647,169.818 118.481,170.484 119,171.5C 119.935,166.998 121.269,166.665 123,170.5C 123.483,169.552 123.649,168.552 123.5,167.5C 125.939,168.053 128.273,168.053 130.5,167.5C 132.22,168.934 134.22,169.767 136.5,170C 137.293,173.411 137.793,176.911 138,180.5C 138.497,177.854 138.664,175.187 138.5,172.5C 142.032,172.368 144.032,174.034 144.5,177.5 Z M 120.5,185.5 C 123.797,185.329 124.131,185.995 121.5,187.5C 120.702,187.043 120.369,186.376 120.5,185.5 Z M 128.5,184.5 C 128.833,184.5 129.167,184.5 129.5,184.5C 130.841,186.834 130.174,188.501 127.5,189.5C 128.038,187.883 128.371,186.216 128.5,184.5 Z M 136.5,184.5 C 137.222,184.082 137.722,183.416 138,182.5C 138.309,183.766 138.809,184.933 139.5,186C 138.002,186.585 137.002,186.085 136.5,184.5 Z M 127.5,180.5 C 127.436,181.365 127.103,182.365 126.5,183.5C 125.351,183.209 124.684,182.376 124.5,181C 125.033,177.935 126.033,177.768 127.5,180.5 Z M 117.5,174.5 C 117.343,175.873 117.51,177.207 118,178.5C 120.137,176.694 119.97,175.36 117.5,174.5 Z M 113.5,173.5 C 112.532,176.445 112.366,179.445 113,182.5C 113.339,179.964 113.839,177.464 114.5,175C 114.43,174.235 114.097,173.735 113.5,173.5 Z M 127.5,189.5 C 127.027,190.906 126.027,191.573 124.5,191.5C 124.821,189.952 125.821,189.285 127.5,189.5 Z M 114.5,190.5 C 118.617,191.616 120.95,194.283 121.5,198.5C 119.822,197.253 118.489,195.586 117.5,193.5C 115.512,191.853 114.179,192.186 113.5,194.5C 113.167,194.5 112.833,194.5 112.5,194.5C 112.389,193.883 112.056,193.383 111.5,193C 112.571,192.148 113.571,191.315 114.5,190.5 Z M 134.5,192.5 C 135.919,191.549 137.585,191.216 139.5,191.5C 139.5,192.167 139.5,192.833 139.5,193.5C 137.883,192.962 136.216,192.629 134.5,192.5 Z M 119.5,205.5 C 120.833,205.5 121.5,206.167 121.5,207.5C 120.5,207.167 119.833,206.5 119.5,205.5 Z M 118.5,207.5 C 119.289,207.783 119.956,208.283 120.5,209C 119.184,209.528 118.517,209.028 118.5,207.5 Z M 145.5,209.5 C 144.342,212.657 144.342,215.824 145.5,219C 145.026,220.729 144.026,221.895 142.5,222.5C 141.167,221.167 141.167,219.833 142.5,218.5C 140.964,214.587 141.964,211.587 145.5,209.5 Z M 136.5,210.5 C 138.344,211.204 138.844,212.537 138,214.5C 137.209,213.255 136.709,211.922 136.5,210.5 Z M 130.5,231.5 C 130.275,228.818 130.775,226.151 132,223.5C 134.229,226.156 136.062,225.823 137.5,222.5C 136.785,219.896 136.785,217.563 137.5,215.5C 140.34,220.054 139.84,224.054 136,227.5C 134.549,229.464 132.716,230.797 130.5,231.5 Z M 113.5,225.5 C 113.167,225.5 112.833,225.5 112.5,225.5C 112.369,224.761 112.536,224.094 113,223.5C 114.38,224.256 114.547,224.922 113.5,225.5 Z M 117.5,224.5 C 118.649,224.791 119.316,225.624 119.5,227C 118.355,229.995 117.021,229.828 115.5,226.5C 115.846,225.304 116.346,225.304 117,226.5C 117.464,225.906 117.631,225.239 117.5,224.5 Z M 119.5,241.5 C 120.782,242.708 120.782,244.042 119.5,245.5C 117.206,244.375 117.206,243.041 119.5,241.5 Z M 133.5,242.5 C 133.5,243.167 133.833,243.5 134.5,243.5C 133.614,244.776 132.614,244.776 131.5,243.5C 131.957,242.702 132.624,242.369 133.5,242.5 Z M 126.5,249.5 C 127.077,248.227 127.743,248.227 128.5,249.5C 128.03,250.463 127.363,250.463 126.5,249.5 Z"/></g>
<g><path style="opacity:1" fill="#dbd6d8" d="M 124.5,191.5 C 125.698,197.398 124.032,202.065 119.5,205.5C 117.194,205.993 114.861,206.326 112.5,206.5C 104.019,200.605 103.686,194.438 111.5,188C 114.167,187.333 116.833,187.333 119.5,188C 121.065,189.412 122.731,190.579 124.5,191.5 Z M 114.5,190.5 C 118.617,191.616 120.95,194.283 121.5,198.5C 119.822,197.253 118.489,195.586 117.5,193.5C 115.512,191.853 114.179,192.186 113.5,194.5C 113.167,194.5 112.833,194.5 112.5,194.5C 112.389,193.883 112.056,193.383 111.5,193C 112.571,192.148 113.571,191.315 114.5,190.5 Z"/></g>
<g><path style="opacity:0.851" fill="#d6d6d4" d="M 136.5,184.5 C 134.167,184.5 131.833,184.5 129.5,184.5C 129.167,184.5 128.833,184.5 128.5,184.5C 128.158,183.662 127.492,183.328 126.5,183.5C 127.103,182.365 127.436,181.365 127.5,180.5C 129.009,177.121 130.009,173.455 130.5,169.5C 131.764,173.18 131.764,176.847 130.5,180.5C 131.32,182.111 132.654,182.778 134.5,182.5C 134.177,178.774 134.511,175.107 135.5,171.5C 136.492,175.783 136.826,180.116 136.5,184.5 Z"/></g>
<g><path style="opacity:0.992" fill="#d9dbde" d="M 120.5,169.5 C 121.298,173.854 122.131,178.188 123,182.5C 120.865,184.278 118.365,184.945 115.5,184.5C 115.334,179.821 115.501,175.155 116,170.5C 116.333,174.167 116.667,177.833 117,181.5C 118.011,182.337 119.178,182.67 120.5,182.5C 120.5,178.167 120.5,173.833 120.5,169.5 Z M 117.5,174.5 C 117.343,175.873 117.51,177.207 118,178.5C 120.137,176.694 119.97,175.36 117.5,174.5 Z"/></g>
<g><path style="opacity:0.953" fill="#e4d8d3" d="M 124.5,168.5 C 125.649,168.791 126.316,169.624 126.5,171C 127.077,173.137 127.41,175.304 127.5,177.5C 126.178,177.67 125.011,177.337 124,176.5C 124.083,173.881 124.25,171.214 124.5,168.5 Z"/></g>
<g><path style="opacity:0.259" fill="#a1a5a2" d="M 104.5,175.5 C 103.27,179.253 102.27,183.086 101.5,187C 101.615,188.895 102.282,190.562 103.5,192C 102.427,193.313 101.76,194.813 101.5,196.5C 102.467,198.762 103.134,201.095 103.5,203.5C 101.947,205.385 99.9468,206.385 97.5,206.5C 96.3083,203.592 95.3083,200.592 94.5,197.5C 94.7573,195.308 95.7573,193.641 97.5,192.5C 96.5325,195.445 96.3658,198.445 97,201.5C 97.3678,202.91 98.2011,203.91 99.5,204.5C 100.812,199.682 100.812,195.015 99.5,190.5C 99.1667,189.167 98.8333,189.167 98.5,190.5C 98.5,191.167 98.1667,191.5 97.5,191.5C 98.7267,189.074 98.7267,187.074 97.5,185.5C 98.4959,185.586 99.3292,185.252 100,184.5C 100.663,180.965 102.163,177.965 104.5,175.5 Z"/></g>
<g><path style="opacity:0.978" fill="#fafbf9" d="M 219.5,203.5 C 215.813,201.657 211.813,200.99 207.5,201.5C 207.5,205.167 207.5,208.833 207.5,212.5C 210.833,212.5 214.167,212.5 217.5,212.5C 218.922,212.75 219.922,213.583 220.5,215C 216.976,220.132 212.976,220.632 208.5,216.5C 205.849,218.415 206.183,219.915 209.5,221C 207.611,224.836 206.945,229.003 207.5,233.5C 210.85,233.665 214.183,233.498 217.5,233C 219.286,232.215 220.786,231.049 222,229.5C 222.333,230.167 222.667,230.833 223,231.5C 223.827,230.338 224.66,229.171 225.5,228C 225.333,227.5 225.167,227 225,226.5C 224.333,227.833 223.667,227.833 223,226.5C 221.249,219.586 223.249,218.253 229,222.5C 229.958,224.199 230.458,226.033 230.5,228C 228.529,231.522 227.196,235.355 226.5,239.5C 224.005,241.714 221.005,242.881 217.5,243C 214.167,243.167 210.833,243.333 207.5,243.5C 203.761,243.486 200.428,242.82 197.5,241.5C 197.333,225.497 197.5,209.497 198,193.5C 204.752,192.355 211.586,192.189 218.5,193C 218.167,193.333 217.833,193.667 217.5,194C 219.976,196.571 222.976,198.071 226.5,198.5C 226.5,199.5 226.5,200.5 226.5,201.5C 227.5,201.5 228.5,201.5 229.5,201.5C 229.664,204.187 229.497,206.854 229,209.5C 227.097,212.955 224.763,213.288 222,210.5C 221.667,211.167 221.333,211.833 221,212.5C 221.29,210.048 221.79,207.881 222.5,206C 221.627,204.955 220.627,204.122 219.5,203.5 Z M 209.5,202.5 C 215.986,200.835 218.819,203.168 218,209.5C 209.589,213.855 206.755,211.522 209.5,202.5 Z M 209.5,222.5 C 212.579,222.26 215.579,222.593 218.5,223.5C 220.256,225.191 220.756,227.191 220,229.5C 211.321,234.748 207.821,232.415 209.5,222.5 Z"/></g>
<g><path style="opacity:0.984" fill="#f4f5f6" d="M 239.5,190.5 C 246.816,191.791 254.149,191.791 261.5,190.5C 266.353,189.977 269.353,191.977 270.5,196.5C 269.872,198.258 268.872,199.758 267.5,201C 261.621,202.41 255.621,202.91 249.5,202.5C 249.5,205.5 249.5,208.5 249.5,211.5C 254.844,211.334 260.177,211.501 265.5,212C 269.5,215.333 269.5,218.667 265.5,222C 260.5,222.333 255.5,222.667 250.5,223C 248.909,226.275 249.242,229.275 251.5,232C 256.5,232.333 261.5,232.667 266.5,233C 271.738,236.529 271.738,239.863 266.5,243C 257.167,243.667 247.833,243.667 238.5,243C 237.707,241.915 237.04,240.748 236.5,239.5C 237.785,225.402 237.785,211.069 236.5,196.5C 236.754,194.039 237.754,192.039 239.5,190.5 Z"/></g>
<g><path style="opacity:0.972" fill="#f1f0f4" d="M 339.5,242.5 C 339.649,241.448 339.483,240.448 339,239.5C 338.282,240.451 337.449,240.617 336.5,240C 337.286,236.564 337.953,233.064 338.5,229.5C 338.097,219.212 338.097,208.878 338.5,198.5C 335.518,198.104 332.851,198.771 330.5,200.5C 329.833,214.327 329.167,227.994 328.5,241.5C 328.5,228.5 328.5,215.5 328.5,202.5C 324.692,202.837 321.026,202.337 317.5,201C 316.167,198 316.167,195 317.5,192C 326.853,191.753 336.186,191.253 345.5,190.5C 352.152,190.68 354.318,194.014 352,200.5C 348.417,202.29 344.584,202.957 340.5,202.5C 340.829,216.01 340.496,229.344 339.5,242.5 Z"/></g>
<g><path style="opacity:0.153" fill="#868890" d="M 142.5,170.5 C 144.017,170.511 145.184,171.177 146,172.5C 148.361,175.888 150.194,179.554 151.5,183.5C 152.325,184.386 153.325,184.719 154.5,184.5C 154.5,183.5 154.5,182.5 154.5,181.5C 155.139,182.097 155.472,182.93 155.5,184C 154.782,186.217 154.282,188.384 154,190.5C 155.316,193.028 156.483,193.028 157.5,190.5C 159.786,191.133 161.452,192.466 162.5,194.5C 161.504,194.586 160.671,194.252 160,193.5C 159.667,196.833 159.333,200.167 159,203.5C 158.764,205.119 157.931,206.119 156.5,206.5C 158.432,202.975 158.766,199.308 157.5,195.5C 156.686,197.766 156.186,200.1 156,202.5C 155.617,203.056 155.117,203.389 154.5,203.5C 155.263,200.859 155.43,198.192 155,195.5C 154.803,193.139 153.636,191.472 151.5,190.5C 150.265,195.853 150.265,201.187 151.5,206.5C 150.883,206.389 150.383,206.056 150,205.5C 149.759,200.295 149.259,195.128 148.5,190C 148.95,188.715 149.617,187.548 150.5,186.5C 149.406,180.313 146.74,174.979 142.5,170.5 Z"/></g>
<g><path style="opacity:0.989" fill="#f8f9f9" d="M 449.5,191.5 C 453.106,191.211 456.606,191.544 460,192.5C 460.667,208.833 460.667,225.167 460,241.5C 458.475,242.72 456.641,243.387 454.5,243.5C 452.571,243.46 450.738,243.127 449,242.5C 448.195,225.456 448.362,208.456 449.5,191.5 Z"/></g>
<g><path style="opacity:0.988" fill="#efe5df" d="M 98.5,190.5 C 98.8333,190.5 99.1667,190.5 99.5,190.5C 100.812,195.015 100.812,199.682 99.5,204.5C 98.2011,203.91 97.3678,202.91 97,201.5C 96.3658,198.445 96.5325,195.445 97.5,192.5C 97.5,192.167 97.5,191.833 97.5,191.5C 98.1667,191.5 98.5,191.167 98.5,190.5 Z"/></g>
<g><path style="opacity:0.988" fill="#f9faf9" d="M 305.5,199.5 C 304.05,202.971 304.716,206.138 307.5,209C 306.788,210.425 306.621,211.925 307,213.5C 306.333,214.167 305.667,214.833 305,215.5C 303.361,213.363 301.361,211.697 299,210.5C 296.38,214.007 294.713,218.007 294,222.5C 293.517,221.552 293.351,220.552 293.5,219.5C 292.325,219.719 291.325,219.386 290.5,218.5C 291.833,217.167 291.833,215.833 290.5,214.5C 291.167,214.167 291.833,213.833 292.5,213.5C 291.902,212.205 291.402,210.872 291,209.5C 290.667,210.5 290.333,211.5 290,212.5C 289.802,210.618 289.302,208.952 288.5,207.5C 289.698,202.762 291.198,198.095 293,193.5C 300.126,188.81 304.293,190.81 305.5,199.5 Z"/></g>
<g><path style="opacity:0.031" fill="#a4a3a4" d="M 114.5,190.5 C 113.571,191.315 112.571,192.148 111.5,193C 112.056,193.383 112.389,193.883 112.5,194.5C 111.508,194.328 110.842,194.662 110.5,195.5C 109.356,196.849 109.356,197.183 110.5,196.5C 112.048,196.821 112.715,197.821 112.5,199.5C 114.167,199.5 115.833,199.5 117.5,199.5C 117.5,197.833 117.5,196.167 117.5,194.5C 116.167,194.5 114.833,194.5 113.5,194.5C 114.179,192.186 115.512,191.853 117.5,193.5C 118.489,195.586 119.822,197.253 121.5,198.5C 117.931,204.64 113.764,204.973 109,199.5C 107.82,194.509 109.654,191.509 114.5,190.5 Z"/></g>
<g><path style="opacity:1" fill="#eeeadd" d="M 112.5,194.5 C 112.833,194.5 113.167,194.5 113.5,194.5C 114.833,194.5 116.167,194.5 117.5,194.5C 117.5,196.167 117.5,197.833 117.5,199.5C 115.833,199.5 114.167,199.5 112.5,199.5C 112.715,197.821 112.048,196.821 110.5,196.5C 110.5,196.167 110.5,195.833 110.5,195.5C 111.492,195.672 112.158,195.338 112.5,194.5 Z"/></g>
<g><path style="opacity:0.941" fill="#f5f6f8" d="M 382.5,218.5 C 381.85,218.804 381.183,219.137 380.5,219.5C 378.242,216.229 375.742,215.896 373,218.5C 371.887,217.24 371.72,216.073 372.5,215C 367.053,214.778 363.053,212.278 360.5,207.5C 361.789,204.849 361.289,202.516 359,200.5C 357.969,201.7 357.135,203.034 356.5,204.5C 355.959,208.802 356.959,212.635 359.5,216C 361.087,216.862 362.754,217.529 364.5,218C 363.402,218.77 363.402,219.603 364.5,220.5C 353.106,216.836 349.939,209.503 355,198.5C 361.106,191.908 368.606,189.742 377.5,192C 384.131,194.194 385.131,197.86 380.5,203C 377.049,203.473 373.715,202.973 370.5,201.5C 365.645,202.15 363.978,204.65 365.5,209C 370.167,211 374.833,213 379.5,215C 380.71,216.039 381.71,217.206 382.5,218.5 Z"/></g>
<g><path style="opacity:0.935" fill="#dbd4d4" d="M 147.5,194.5 C 147.634,196.292 147.301,197.958 146.5,199.5C 140.282,208.069 133.615,208.402 126.5,200.5C 126.167,200.5 125.833,200.5 125.5,200.5C 126.119,197.466 126.953,194.466 128,191.5C 135.641,185.26 141.641,186.593 146,195.5C 146.383,194.944 146.883,194.611 147.5,194.5 Z M 134.5,192.5 C 135.919,191.549 137.585,191.216 139.5,191.5C 139.5,192.167 139.5,192.833 139.5,193.5C 137.883,192.962 136.216,192.629 134.5,192.5 Z M 134.5,192.5 C 133.123,194.289 132.123,196.289 131.5,198.5C 130.427,197.749 130.26,196.749 131,195.5C 131.667,194.167 132.333,192.833 133,191.5C 133.383,192.056 133.883,192.389 134.5,192.5 Z"/></g>
<g><path style="opacity:0.016" fill="#a29fa1" d="M 139.5,191.5 C 140.458,191.953 141.292,192.619 142,193.5C 144.04,199.352 142.04,202.685 136,203.5C 132.938,203.305 131.772,201.971 132.5,199.5C 133.557,198.794 133.224,198.461 131.5,198.5C 132.123,196.289 133.123,194.289 134.5,192.5C 136.216,192.629 137.883,192.962 139.5,193.5C 139.5,192.833 139.5,192.167 139.5,191.5 Z"/></g>
<g><path style="opacity:0.855" fill="#d0cbc8" d="M 154.5,203.5 C 153.833,204.833 152.833,205.833 151.5,206.5C 150.265,201.187 150.265,195.853 151.5,190.5C 153.636,191.472 154.803,193.139 155,195.5C 155.43,198.192 155.263,200.859 154.5,203.5 Z"/></g>
<g><path style="opacity:1" fill="#e0d3cc" d="M 97.5,206.5 C 98.6935,207.272 99.6935,208.272 100.5,209.5C 101.641,210.339 102.974,211.006 104.5,211.5C 105.659,215.122 105.825,218.789 105,222.5C 103.482,223.163 102.315,224.163 101.5,225.5C 101.5,226.167 101.167,226.5 100.5,226.5C 98.742,226.877 97.0754,227.544 95.5,228.5C 94.914,228.291 94.414,227.957 94,227.5C 93.7508,228.624 93.2508,229.624 92.5,230.5C 89.4594,232.559 86.4594,234.559 83.5,236.5C 83.5,236.833 83.5,237.167 83.5,237.5C 78.6428,239.759 73.6428,241.759 68.5,243.5C 67.4781,221.859 75.4781,204.525 92.5,191.5C 92.1594,195.513 92.6594,199.513 94,203.5C 94.7589,205.063 95.9256,206.063 97.5,206.5 Z"/></g>
<g><path style="opacity:1" fill="#e0d3cd" d="M 162.5,194.5 C 173.833,203.827 180.5,215.827 182.5,230.5C 182.826,234.884 182.492,239.217 181.5,243.5C 177.048,240.607 172.381,238.274 167.5,236.5C 160.312,232.98 153.645,228.647 147.5,223.5C 146.404,219.587 146.238,215.587 147,211.5C 148.47,210.733 149.97,210.067 151.5,209.5C 153.001,208.248 154.668,207.248 156.5,206.5C 157.931,206.119 158.764,205.119 159,203.5C 159.333,200.167 159.667,196.833 160,193.5C 160.671,194.252 161.504,194.586 162.5,194.5 Z"/></g>
<g><path style="opacity:0.989" fill="#fbfbfa" d="M 339.5,242.5 C 336.36,243.641 333.027,243.808 329.5,243C 328.944,242.617 328.611,242.117 328.5,241.5C 329.167,227.994 329.833,214.327 330.5,200.5C 332.851,198.771 335.518,198.104 338.5,198.5C 338.097,208.878 338.097,219.212 338.5,229.5C 337.953,233.064 337.286,236.564 336.5,240C 337.449,240.617 338.282,240.451 339,239.5C 339.483,240.448 339.649,241.448 339.5,242.5 Z"/></g>
<g><path style="opacity:0.979" fill="#f5f5f6" d="M 305.5,199.5 C 309.738,209.694 313.905,220.027 318,230.5C 319.647,234.422 320.647,238.422 321,242.5C 317.591,243.622 314.091,243.789 310.5,243C 308.648,239.789 306.981,236.456 305.5,233C 300.833,232.333 296.167,232.333 291.5,233C 290.019,236.456 288.352,239.789 286.5,243C 282.848,243.499 279.182,243.665 275.5,243.5C 275.338,241.473 275.505,239.473 276,237.5C 279.899,227.278 284.066,217.278 288.5,207.5C 289.302,208.952 289.802,210.618 290,212.5C 290.333,211.5 290.667,210.5 291,209.5C 291.402,210.872 291.902,212.205 292.5,213.5C 291.833,213.833 291.167,214.167 290.5,214.5C 291.833,215.833 291.833,217.167 290.5,218.5C 291.325,219.386 292.325,219.719 293.5,219.5C 293.351,220.552 293.517,221.552 294,222.5C 294.713,218.007 296.38,214.007 299,210.5C 301.361,211.697 303.361,213.363 305,215.5C 305.667,214.833 306.333,214.167 307,213.5C 306.621,211.925 306.788,210.425 307.5,209C 304.716,206.138 304.05,202.971 305.5,199.5 Z M 297.5,213.5 C 299.862,215.919 300.862,218.919 300.5,222.5C 298.833,222.5 297.167,222.5 295.5,222.5C 296.167,219.5 296.833,216.5 297.5,213.5 Z"/></g>
<g><path style="opacity:0.978" fill="#f7f8f8" d="M 426.5,197.5 C 426.511,199.547 426.844,201.547 427.5,203.5C 425.946,205.674 424.28,208.508 422.5,212C 422.833,212.333 423.167,212.667 423.5,213C 421.953,212.287 420.286,211.454 418.5,210.5C 417,210.453 416,211.119 415.5,212.5C 416.561,215.95 416.561,219.617 415.5,223.5C 418.247,223.187 420.914,223.52 423.5,224.5C 426.92,226.877 430.587,228.71 434.5,230C 433.692,230.308 433.025,230.808 432.5,231.5C 433.771,231.126 434.938,231.792 436,233.5C 436.333,233.167 436.667,232.833 437,232.5C 438.474,235.756 439.64,239.089 440.5,242.5C 437.833,242.5 435.167,242.5 432.5,242.5C 430.137,239.618 428.137,236.451 426.5,233C 422.167,232.333 417.833,232.333 413.5,233C 411.577,236.178 409.911,239.512 408.5,243C 404.833,243.667 401.167,243.667 397.5,243C 396.978,242.439 396.645,241.772 396.5,241C 402.805,224.889 408.972,208.722 415,192.5C 420.908,189.195 424.741,190.862 426.5,197.5 Z"/></g>
<g><path style="opacity:0.98" fill="#c1cace" d="M 146.5,204.5 C 147.043,204.56 147.376,204.893 147.5,205.5C 146.82,206.86 146.153,208.193 145.5,209.5C 141.964,211.587 140.964,214.587 142.5,218.5C 141.504,218.414 140.671,218.748 140,219.5C 138.841,214.614 139.674,210.281 142.5,206.5C 143.167,206.5 143.5,206.167 143.5,205.5C 144.609,205.443 145.609,205.11 146.5,204.5 Z"/></g>
<g><path style="opacity:0.979" fill="#f3f4f6" d="M 426.5,197.5 C 431.851,211.703 437.517,225.87 443.5,240C 443.167,241 442.833,242 442.5,243C 438.973,243.808 435.64,243.641 432.5,242.5C 435.167,242.5 437.833,242.5 440.5,242.5C 439.64,239.089 438.474,235.756 437,232.5C 436.667,232.833 436.333,233.167 436,233.5C 434.938,231.792 433.771,231.126 432.5,231.5C 433.025,230.808 433.692,230.308 434.5,230C 430.587,228.71 426.92,226.877 423.5,224.5C 420.914,223.52 418.247,223.187 415.5,223.5C 416.561,219.617 416.561,215.95 415.5,212.5C 416,211.119 417,210.453 418.5,210.5C 420.286,211.454 421.953,212.287 423.5,213C 423.167,212.667 422.833,212.333 422.5,212C 424.28,208.508 425.946,205.674 427.5,203.5C 426.844,201.547 426.511,199.547 426.5,197.5 Z M 419.5,213.5 C 421.123,215.878 422.457,218.545 423.5,221.5C 421.604,222.466 419.604,222.799 417.5,222.5C 417.405,219.308 418.071,216.308 419.5,213.5 Z"/></g>
<g><path style="opacity:0.918" fill="#d0d3d2" d="M 108.5,210.5 C 107.833,210.167 107.167,209.833 106.5,209.5C 106.5,209.167 106.5,208.833 106.5,208.5C 105.438,207.425 105.438,206.425 106.5,205.5C 108.071,207.415 110.071,208.415 112.5,208.5C 112.823,212.226 112.489,215.893 111.5,219.5C 111.094,216.061 110.094,213.061 108.5,210.5 Z"/></g>
<g><path style="opacity:0.986" fill="#ededf1" d="M 226.5,239.5 C 227.196,235.355 228.529,231.522 230.5,228C 230.458,226.033 229.958,224.199 229,222.5C 223.249,218.253 221.249,219.586 223,226.5C 223.667,227.833 224.333,227.833 225,226.5C 225.167,227 225.333,227.5 225.5,228C 224.66,229.171 223.827,230.338 223,231.5C 222.667,230.833 222.333,230.167 222,229.5C 220.786,231.049 219.286,232.215 217.5,233C 214.183,233.498 210.85,233.665 207.5,233.5C 206.945,229.003 207.611,224.836 209.5,221C 206.183,219.915 205.849,218.415 208.5,216.5C 212.976,220.632 216.976,220.132 220.5,215C 219.922,213.583 218.922,212.75 217.5,212.5C 219.268,209.838 219.935,206.838 219.5,203.5C 220.627,204.122 221.627,204.955 222.5,206C 221.79,207.881 221.29,210.048 221,212.5C 221.333,211.833 221.667,211.167 222,210.5C 224.763,213.288 227.097,212.955 229,209.5C 229.497,206.854 229.664,204.187 229.5,201.5C 228.5,201.5 227.5,201.5 226.5,201.5C 226.5,200.5 226.5,199.5 226.5,198.5C 222.976,198.071 219.976,196.571 217.5,194C 217.833,193.667 218.167,193.333 218.5,193C 211.586,192.189 204.752,192.355 198,193.5C 197.5,209.497 197.333,225.497 197.5,241.5C 196.338,225.339 196.172,209.005 197,192.5C 199.757,190.973 202.757,190.307 206,190.5C 211.608,190.682 217.108,191.515 222.5,193C 230.037,197.032 232.537,203.198 230,211.5C 229.215,213.286 228.049,214.786 226.5,216C 234.154,222.115 235.321,229.282 230,237.5C 229.184,238.823 228.017,239.489 226.5,239.5 Z M 209.5,202.5 C 206.755,211.522 209.589,213.855 218,209.5C 218.819,203.168 215.986,200.835 209.5,202.5 Z M 209.5,222.5 C 207.821,232.415 211.321,234.748 220,229.5C 220.756,227.191 220.256,225.191 218.5,223.5C 215.579,222.593 212.579,222.26 209.5,222.5 Z"/></g>
<g><path style="opacity:0.306" fill="#cac9d3" d="M 219.5,203.5 C 219.935,206.838 219.268,209.838 217.5,212.5C 214.167,212.5 210.833,212.5 207.5,212.5C 207.5,208.833 207.5,205.167 207.5,201.5C 211.813,200.99 215.813,201.657 219.5,203.5 Z M 209.5,202.5 C 206.755,211.522 209.589,213.855 218,209.5C 218.819,203.168 215.986,200.835 209.5,202.5 Z"/></g>
<g><path style="opacity:0.855" fill="#cac6c4" d="M 124.5,206.5 C 124.328,207.492 124.662,208.158 125.5,208.5C 125.433,209.959 125.766,211.292 126.5,212.5C 127.185,211.692 127.685,209.692 128,206.5C 128.414,206.957 128.914,207.291 129.5,207.5C 130.663,213.137 130.83,218.804 130,224.5C 127.281,225.444 124.448,225.777 121.5,225.5C 121.5,219.5 121.5,213.5 121.5,207.5C 122.391,206.89 123.391,206.557 124.5,206.5 Z"/></g>
<g><path style="opacity:0.004" fill="#00fffe" d="M 107.5,224.5 C 106.833,225.167 106.833,225.167 107.5,224.5 Z"/></g>
<g><path style="opacity:1" fill="#eee4db" d="M 108.5,224.5 C 110.017,224.511 111.184,225.177 112,226.5C 112.399,226.272 112.565,225.938 112.5,225.5C 112.833,225.5 113.167,225.5 113.5,225.5C 114.369,229.374 116.703,232.041 120.5,233.5C 121.167,233.5 121.5,233.833 121.5,234.5C 122.303,235.423 122.47,236.423 122,237.5C 118.63,240.535 115.63,243.868 113,247.5C 112.617,246.944 112.117,246.611 111.5,246.5C 109.186,241.244 107.853,235.911 107.5,230.5C 108.348,228.591 108.682,226.591 108.5,224.5 Z"/></g>
<g><path style="opacity:1" fill="#f7f7f6" d="M 382.5,218.5 C 386.909,225.742 386.243,232.575 380.5,239C 371.898,243.625 363.231,243.625 354.5,239C 353.833,238 353.167,237 352.5,236C 353.723,233.056 355.556,230.556 358,228.5C 360.87,230.513 364.037,231.846 367.5,232.5C 371.865,231.984 373.698,229.651 373,225.5C 370.254,223.545 367.42,221.878 364.5,220.5C 363.402,219.603 363.402,218.77 364.5,218C 362.754,217.529 361.087,216.862 359.5,216C 356.959,212.635 355.959,208.802 356.5,204.5C 357.135,203.034 357.969,201.7 359,200.5C 361.289,202.516 361.789,204.849 360.5,207.5C 363.053,212.278 367.053,214.778 372.5,215C 371.72,216.073 371.887,217.24 373,218.5C 375.742,215.896 378.242,216.229 380.5,219.5C 381.183,219.137 381.85,218.804 382.5,218.5 Z"/></g>
<g><path style="opacity:1" fill="#cdc4bc" d="M 101.5,228.5 C 103.292,228.366 104.958,228.699 106.5,229.5C 107.338,238.357 108.338,247.191 109.5,256C 109.478,259.086 109.145,262.086 108.5,265C 111.125,267.276 110.792,269.109 107.5,270.5C 105.002,271.63 102.668,271.63 100.5,270.5C 99.3778,264.847 97.7111,259.347 95.5,254C 97.0562,251.948 99.0562,250.448 101.5,249.5C 103.342,245.582 102.175,242.916 98,241.5C 97.6012,241.728 97.4346,242.062 97.5,242.5C 96.0532,241.866 95.3866,240.699 95.5,239C 95.3902,234.171 97.3902,230.671 101.5,228.5 Z"/></g>
<g><path style="opacity:1" fill="#efe7df" d="M 143.5,234.5 C 142.952,236.626 142.285,238.626 141.5,240.5C 140.801,242.556 139.801,244.556 138.5,246.5C 137.431,245.09 136.097,244.09 134.5,243.5C 133.833,243.5 133.5,243.167 133.5,242.5C 132.836,240.513 131.669,238.846 130,237.5C 129.333,236.5 129.333,235.5 130,234.5C 134.185,231.405 138.185,228.072 142,224.5C 142.179,228.025 142.679,231.359 143.5,234.5 Z"/></g>
<g><path style="opacity:0.047" fill="#8d8e93" d="M 182.5,230.5 C 183.133,243.816 183.133,257.15 182.5,270.5C 182.5,268.833 182.5,267.167 182.5,265.5C 180.131,265.851 177.797,266.018 175.5,266C 174.2,264.421 174.534,263.255 176.5,262.5C 178.265,261.539 180.265,261.205 182.5,261.5C 182.5,260.5 182.5,259.5 182.5,258.5C 178.921,258.316 175.587,258.983 172.5,260.5C 172.5,263.833 172.5,267.167 172.5,270.5C 174.735,270.205 176.735,270.539 178.5,271.5C 175.606,271.958 173.106,271.291 171,269.5C 171.04,263.44 171.04,257.44 171,251.5C 172.067,250.809 173.234,250.309 174.5,250C 171.667,249.833 170.167,248.333 170,245.5C 169.667,253.833 169.333,262.167 169,270.5C 168.617,271.056 168.117,271.389 167.5,271.5C 168.12,261.37 168.786,251.37 169.5,241.5C 169.351,242.552 169.517,243.552 170,244.5C 170.519,243.484 171.353,242.818 172.5,242.5C 174.405,243.065 176.071,244.065 177.5,245.5C 177.833,245.167 178.167,244.833 178.5,244.5C 174.981,241.579 171.314,238.913 167.5,236.5C 172.381,238.274 177.048,240.607 181.5,243.5C 182.492,239.217 182.826,234.884 182.5,230.5 Z"/></g>
<g><path style="opacity:0.231" fill="#8e9493" d="M 100.5,270.5 C 97.4502,265.529 95.4502,260.029 94.5,254C 94.6483,252.744 94.9816,251.577 95.5,250.5C 97.8236,249.67 99.8236,248.337 101.5,246.5C 99.812,245.479 98.4787,244.145 97.5,242.5C 97.4346,242.062 97.6012,241.728 98,241.5C 102.175,242.916 103.342,245.582 101.5,249.5C 99.0562,250.448 97.0562,251.948 95.5,254C 97.7111,259.347 99.3778,264.847 100.5,270.5 Z"/></g>
<g><path style="opacity:1" fill="#d1c8c0" d="M 94.5,237.5 C 94.6716,238.492 94.3382,239.158 93.5,239.5C 92.249,240.001 92.249,241.335 93.5,243.5C 94.8333,244.167 95.8333,245.167 96.5,246.5C 93.7984,248.942 90.965,251.276 88,253.5C 87.5006,259.157 87.3339,264.824 87.5,270.5C 86.1667,270.5 84.8333,270.5 83.5,270.5C 83.1682,260.81 83.5016,251.144 84.5,241.5C 86.6789,240.243 88.6789,238.743 90.5,237C 91.9285,236.421 93.2618,236.588 94.5,237.5 Z"/></g>
<g><path style="opacity:0.392" fill="#908d91" d="M 100.5,226.5 C 97.2015,228.505 94.2015,231.005 91.5,234C 93.4257,234.422 94.4257,235.589 94.5,237.5C 93.2618,236.588 91.9285,236.421 90.5,237C 88.6789,238.743 86.6789,240.243 84.5,241.5C 83.5016,251.144 83.1682,260.81 83.5,270.5C 82.2101,269.942 81.3768,268.942 81,267.5C 80.6667,268.5 80.3333,269.5 80,270.5C 79.31,271.738 78.81,271.738 78.5,270.5C 79.4137,267.272 79.7471,263.939 79.5,260.5C 76.4127,258.983 73.0794,258.316 69.5,258.5C 69.5,259.5 69.5,260.5 69.5,261.5C 71.5273,261.338 73.5273,261.505 75.5,262C 76.3366,263.011 76.67,264.178 76.5,265.5C 74.1667,265.5 71.8333,265.5 69.5,265.5C 69.366,267.292 69.6993,268.958 70.5,270.5C 68.1425,268.679 67.8092,266.345 69.5,263.5C 68.8333,262.5 68.1667,261.5 67.5,260.5C 67.7538,255.467 69.0871,250.8 71.5,246.5C 70.2299,245.712 69.2299,244.712 68.5,243.5C 73.6428,241.759 78.6428,239.759 83.5,237.5C 81.6814,238.584 80.0147,239.918 78.5,241.5C 80.1407,244.558 80.9741,247.892 81,251.5C 81.3333,248.167 81.6667,244.833 82,241.5C 84.3792,239.487 86.8792,237.654 89.5,236C 87.5116,235.82 85.5116,235.986 83.5,236.5C 86.4594,234.559 89.4594,232.559 92.5,230.5C 93.2508,229.624 93.7508,228.624 94,227.5C 94.414,227.957 94.914,228.291 95.5,228.5C 97.0754,227.544 98.742,226.877 100.5,226.5 Z M 80.5,256.5 C 81.6129,257.946 81.7796,259.613 81,261.5C 80.6258,260.584 80.1258,259.75 79.5,259C 80.2524,258.329 80.5858,257.496 80.5,256.5 Z"/></g>
<g><path style="opacity:1" fill="#f6eee1" d="M 118.5,246.5 C 119.364,247.688 120.364,248.855 121.5,250C 119.873,252.754 118.373,255.588 117,258.5C 115.888,256.61 115.054,254.61 114.5,252.5C 115.432,250.235 116.765,248.235 118.5,246.5 Z"/></g>
<g><path style="opacity:1" fill="#f1ede2" d="M 132.5,246.5 C 138.282,249.63 138.949,253.63 134.5,258.5C 133.035,255.736 131.701,252.903 130.5,250C 130.978,248.697 131.645,247.531 132.5,246.5 Z"/></g>
<g><path style="opacity:0.971" fill="#c7c1ba" d="M 169.5,241.5 C 168.786,251.37 168.12,261.37 167.5,271.5C 166.603,270.402 165.77,270.402 165,271.5C 164.333,270.833 163.667,270.167 163,269.5C 162.667,264.167 162.333,258.833 162,253.5C 159.921,251.21 157.421,249.543 154.5,248.5C 153.079,245.044 154.245,242.71 158,241.5C 158.651,239.765 158.485,238.098 157.5,236.5C 158,236.167 158.5,235.833 159,235.5C 162.628,237.394 166.128,239.394 169.5,241.5 Z"/></g>
<g><path style="opacity:0.114" fill="#8a8d8c" d="M 93.5,239.5 C 94.7284,242.075 96.3951,244.408 98.5,246.5C 97.4756,247.852 96.4756,249.185 95.5,250.5C 93.6159,250.712 92.2826,251.712 91.5,253.5C 94.0496,258.926 95.7163,264.592 96.5,270.5C 94.5,270.5 92.5,270.5 90.5,270.5C 90.719,269.325 90.3857,268.325 89.5,267.5C 88.8243,268.602 88.1577,269.602 87.5,270.5C 87.3339,264.824 87.5006,259.157 88,253.5C 90.965,251.276 93.7984,248.942 96.5,246.5C 95.8333,245.167 94.8333,244.167 93.5,243.5C 92.249,241.335 92.249,240.001 93.5,239.5 Z"/></g>
<g><path style="opacity:0.996" fill="#d9d1d2" d="M 172.5,251.5 C 175.742,252.212 179.075,252.212 182.5,251.5C 182.5,252.833 182.5,254.167 182.5,255.5C 179.421,255.26 176.421,255.593 173.5,256.5C 172.548,254.955 172.215,253.288 172.5,251.5 Z"/></g>
<g><path style="opacity:1" fill="#e1d5d2" d="M 123.5,250.5 C 127.078,251.244 129.078,253.577 129.5,257.5C 126.859,264.166 124.192,264.5 121.5,258.5C 122.246,257.264 122.579,255.93 122.5,254.5C 123.434,253.432 123.768,252.099 123.5,250.5 Z"/></g>
<g><path style="opacity:1" fill="#d0c5bc" d="M 148.5,228.5 C 154.858,230.548 157.025,234.881 155,241.5C 153.108,243.054 151.608,244.888 150.5,247C 151.544,248.174 152.544,249.341 153.5,250.5C 154.582,251.594 155.248,252.927 155.5,254.5C 153.848,259.774 152.515,265.108 151.5,270.5C 149.034,271.634 146.367,271.801 143.5,271C 142.106,270.044 141.439,268.711 141.5,267C 141.975,256.574 143.308,246.407 145.5,236.5C 145.902,233.523 146.902,230.857 148.5,228.5 Z"/></g>
<g><path style="opacity:0.863" fill="#d9d1c8" d="M 78.5,270.5 C 75.9103,271.014 73.2436,271.014 70.5,270.5C 69.6993,268.958 69.366,267.292 69.5,265.5C 71.8333,265.5 74.1667,265.5 76.5,265.5C 76.67,264.178 76.3366,263.011 75.5,262C 73.5273,261.505 71.5273,261.338 69.5,261.5C 69.5,260.5 69.5,259.5 69.5,258.5C 73.0794,258.316 76.4127,258.983 79.5,260.5C 79.7471,263.939 79.4137,267.272 78.5,270.5 Z"/></g>
<g><path style="opacity:1" fill="#dccec4" d="M 176.5,262.5 C 174.534,263.255 174.2,264.421 175.5,266C 177.797,266.018 180.131,265.851 182.5,265.5C 182.5,267.167 182.5,268.833 182.5,270.5C 181.292,271.234 179.959,271.567 178.5,271.5C 176.735,270.539 174.735,270.205 172.5,270.5C 172.5,267.167 172.5,263.833 172.5,260.5C 175.587,258.983 178.921,258.316 182.5,258.5C 182.5,259.5 182.5,260.5 182.5,261.5C 180.265,261.205 178.265,261.539 176.5,262.5 Z"/></g>
<g><path style="opacity:0.561" fill="#a4a9a8" d="M 153.5,250.5 C 156.47,250.746 157.803,252.412 157.5,255.5C 158.833,255.5 160.167,255.5 161.5,255.5C 161.666,260.179 161.499,264.845 161,269.5C 159.606,271.402 157.773,271.735 155.5,270.5C 155.464,265.938 156.464,261.604 158.5,257.5C 158.167,257.167 157.833,256.833 157.5,256.5C 155.681,261.304 153.681,265.971 151.5,270.5C 152.515,265.108 153.848,259.774 155.5,254.5C 155.248,252.927 154.582,251.594 153.5,250.5 Z"/></g>
</svg>
