<?xml version="1.0" standalone="no"?>
<!DOCTYPE svg PUBLIC "-//W3C//DTD SVG 20010904//EN"
 "http://www.w3.org/TR/2001/REC-SVG-20010904/DTD/svg10.dtd">
<svg version="1.0" xmlns="http://www.w3.org/2000/svg"
 width="300.000000pt" height="300.000000pt" viewBox="0 0 300.000000 300.000000"
 preserveAspectRatio="xMidYMid meet">
<metadata>
Created by potrace 1.10, written by Peter Selinger 2001-2011
</metadata>
<g transform="translate(0.000000,300.000000) scale(0.100000,-0.100000)"
fill="#ffffff" stroke="none">
<path d="M1387 2350 c-21 -6 -52 -17 -70 -27 -18 -9 -37 -18 -44 -19 -20 -4
-102 -74 -136 -118 -17 -23 -35 -44 -40 -47 -5 -3 -9 -12 -10 -20 -2 -8 -6
-19 -10 -25 -4 -7 -14 -41 -22 -78 -15 -63 -15 -66 5 -86 11 -11 20 -25 20
-31 0 -14 -30 -43 -37 -35 -3 3 -15 -13 -25 -37 -25 -53 -20 -136 9 -175 28
-38 81 -72 112 -72 14 -1 36 -9 49 -19 19 -17 22 -29 22 -89 l0 -70 -142 -95
c-160 -107 -407 -251 -416 -242 -11 11 18 253 38 320 48 152 130 283 254 404
42 40 76 76 76 78 0 3 -12 2 -26 -1 -30 -8 -143 -115 -200 -191 -69 -91 -154
-287 -154 -355 0 -11 -4 -18 -10 -15 -6 4 -10 -37 -10 -114 0 -108 2 -123 20
-141 11 -11 24 -20 30 -20 15 0 0 -33 -24 -52 -23 -18 -34 -89 -13 -85 12 2
12 -5 -3 -55 -6 -18 -5 -28 2 -28 6 0 7 -15 3 -37 -15 -95 -15 -99 14 -116 36
-21 141 -33 151 -16 9 13 47 14 96 4 22 -5 36 -2 45 7 11 13 18 13 51 0 37
-15 40 -14 70 8 l31 23 18 -21 c14 -18 28 -22 72 -22 72 0 101 22 100 76 -1
56 -10 171 -19 226 -3 26 -3 55 0 65 7 17 8 17 22 -1 8 -11 14 -39 14 -62 0
-24 5 -46 10 -49 6 -3 10 -17 10 -31 0 -13 5 -24 11 -24 6 0 17 -7 26 -16 9
-8 23 -12 31 -9 10 4 32 -12 63 -45 31 -33 55 -50 70 -50 27 1 73 36 82 63 4
9 17 21 30 26 53 20 95 103 83 166 -3 19 9 35 28 35 8 0 5 -85 -10 -260 -5
-57 -3 -68 16 -87 28 -30 122 -32 159 -4 21 16 27 17 39 5 16 -17 65 -18 94
-3 11 6 23 7 27 3 22 -31 40 -35 75 -19 24 12 40 14 53 7 17 -10 83 -16 130
-13 37 2 63 36 63 80 0 22 -5 43 -11 46 -6 4 -7 14 -3 24 4 9 8 51 10 93 2 57
-1 80 -12 89 -8 6 -14 20 -14 29 0 10 -8 20 -17 23 -14 3 -11 7 12 16 16 7 33
18 37 24 13 20 9 148 -7 227 -23 117 -30 142 -53 187 -12 23 -22 47 -22 52 0
29 -139 217 -198 268 -83 72 -106 84 -124 67 -12 -12 -18 -10 -47 20 -32 33
-32 34 -12 41 28 9 44 41 36 73 -4 15 -8 34 -10 42 -3 14 -31 77 -58 128 -6
12 -17 22 -23 22 -6 0 -16 10 -23 23 -19 34 -89 82 -166 112 -56 22 -90 29
-165 31 -52 2 -112 -1 -133 -6z m268 -50 c94 -32 182 -103 230 -185 23 -38 59
-154 51 -162 -11 -11 -56 11 -56 27 0 31 -39 112 -75 156 -107 130 -313 172
-469 95 -104 -51 -177 -143 -200 -252 -3 -15 -17 -31 -32 -38 l-27 -12 6 52
c19 158 174 309 347 338 69 11 160 4 225 -19z m-121 -151 c7 -70 4 -79 -29
-79 -27 0 -44 35 -26 53 6 6 11 28 11 49 0 30 4 38 19 38 15 0 19 -11 25 -61z
m-84 -23 c0 -53 4 -77 15 -86 23 -19 18 -44 -15 -68 -24 -18 -36 -20 -67 -14
l-38 8 -3 93 c-3 88 5 121 29 121 4 0 10 -42 11 -92 3 -85 5 -93 23 -93 19 0
20 5 16 103 -3 89 -1 102 13 102 13 0 16 -13 16 -74z m148 -5 c2 -46 -1 -78
-9 -87 -10 -12 -9 -18 4 -31 13 -14 19 -14 32 -3 13 11 16 30 14 94 -2 64 1
81 12 81 11 0 15 -23 17 -106 l3 -106 -37 -6 c-66 -11 -123 57 -78 94 13 10
15 28 12 81 -3 58 -1 68 12 66 11 -3 16 -20 18 -77z m-298 -81 c0 -71 -3 -90
-14 -90 -8 0 -31 -15 -50 -34 l-36 -33 0 51 c0 29 9 70 20 94 21 46 60 101 73
101 4 1 7 -39 7 -89z m467 36 c37 -54 53 -103 53 -160 l0 -38 -40 36 c-22 20
-47 36 -55 36 -12 0 -15 17 -15 91 0 105 7 109 57 35z m-237 -146 c0 -24 -26
-38 -42 -22 -16 16 -2 42 22 42 13 0 20 -7 20 -20z m-360 -17 c0 -9 8 -25 18
-36 9 -11 11 -17 5 -13 -8 4 -13 2 -13 -5 0 -7 -11 2 -25 21 -18 25 -22 37
-14 47 14 15 29 8 29 -14z m709 14 c8 -11 5 -19 -14 -37 -13 -13 -23 -26 -20
-29 2 -4 0 -13 -6 -21 -6 -11 -9 -8 -9 13 0 15 3 27 8 27 4 0 12 11 18 25 9
18 9 25 0 29 -8 3 -8 5 0 5 6 1 17 -5 23 -12z m-452 -27 c101 -61 80 -223 -33
-260 -103 -34 -213 67 -184 170 10 37 53 87 85 100 36 15 99 11 132 -10z m314
-3 c98 -65 85 -208 -23 -252 -71 -28 -150 1 -184 67 -20 40 -14 115 12 151 43
59 135 75 195 34z m209 -135 c0 -60 -15 -93 -51 -112 -18 -10 -19 -7 -19 117
l1 128 34 -37 c32 -34 35 -43 35 -96z m-817 1 c-1 -65 -2 -120 -3 -122 0 -3
-13 8 -30 24 -48 46 -52 134 -9 189 38 48 44 35 42 -91z m1014 -51 c133 -159
195 -312 214 -524 5 -66 8 -122 6 -124 -8 -8 -364 203 -482 284 l-70 49 -3 73
c-3 85 11 110 63 110 97 0 177 144 130 234 -8 15 -15 33 -15 38 0 14 111 -85
157 -140z m-962 -13 c-9 -13 71 -88 102 -95 22 -6 23 -11 23 -95 0 -49 -3 -89
-6 -89 -18 0 -33 41 -34 88 0 47 -3 56 -35 83 -19 17 -35 39 -35 50 0 10 -7
22 -17 27 -15 9 -13 42 2 42 4 0 3 -5 0 -11z m638 -50 c-4 -12 -23 -38 -44
-58 -36 -33 -39 -40 -39 -92 0 -38 -5 -61 -15 -69 -13 -11 -15 -1 -15 78 0 85
1 90 23 96 12 3 36 19 52 36 34 35 45 38 38 9z m-342 -65 c-3 -58 7 -78 36
-67 9 3 13 24 13 64 0 32 3 59 7 59 3 0 15 -7 25 -17 16 -14 18 -33 18 -145
l0 -128 -70 0 -70 0 0 131 c0 114 2 134 18 145 26 20 27 18 23 -42z m-89 -217
c-2 -4 -12 -2 -23 3 -17 10 -19 22 -19 115 0 91 2 104 18 107 15 3 18 -9 22
-107 3 -60 4 -113 2 -118z m272 116 c-1 -102 -7 -122 -36 -123 -5 0 -8 53 -8
119 0 117 0 118 23 114 21 -4 22 -8 21 -110z m-396 -74 c-2 -6 -8 -10 -13 -10
-5 0 -11 4 -13 10 -2 6 4 11 13 11 9 0 15 -5 13 -11z m502 -2 c0 -7 -8 -13
-17 -13 -10 -1 -27 -5 -37 -9 -14 -6 -17 -5 -12 4 7 11 41 29 59 30 4 1 7 -5
7 -12z m-388 -146 l88 -73 -82 -89 c-44 -49 -82 -88 -84 -87 -2 3 -35 194 -53
306 -4 28 -6 54 -3 56 2 3 14 -5 26 -18 11 -12 60 -55 108 -95z m383 72 c-19
-143 -48 -309 -53 -313 -4 -3 -44 33 -89 80 l-81 85 111 97 c62 53 113 97 115
97 2 1 0 -20 -3 -46z m-554 4 c-16 -16 -26 0 -10 19 9 11 15 12 17 4 2 -6 -1
-17 -7 -23z m424 -6 c0 -8 -9 -19 -20 -25 -11 -6 -32 -19 -47 -28 -35 -24 -90
-23 -119 2 l-24 19 82 1 c80 0 83 1 89 26 7 26 39 31 39 5z m-212 -5 c3 -8 -1
-17 -10 -20 -16 -7 -43 10 -43 25 0 15 47 10 53 -5z m-223 -54 c0 -20 9 -123
19 -227 11 -105 23 -232 27 -283 l7 -93 -63 3 -62 3 -39 125 c-22 68 -39 127
-39 130 0 3 25 21 55 40 70 45 71 63 6 118 l-48 41 15 59 c14 51 21 62 61 90
25 17 49 31 54 31 4 1 7 -16 7 -37z m675 6 c36 -26 47 -41 60 -84 8 -29 15
-56 15 -61 0 -6 -22 -29 -50 -52 -27 -23 -50 -49 -50 -56 0 -8 26 -31 58 -51
31 -20 58 -38 60 -39 2 -2 -11 -47 -28 -101 -17 -55 -36 -114 -42 -131 -9 -33
-10 -33 -74 -33 l-65 0 6 68 c4 37 17 177 31 312 13 135 24 249 24 253 0 12 7
8 55 -25z m115 -51 c0 -8 -6 -14 -13 -14 -8 0 -14 6 -14 14 0 7 6 13 14 13 7
0 13 -6 13 -13z m-467 -12 c1 -5 -6 -11 -15 -13 -11 -2 -18 3 -18 13 0 17 30
18 33 0z m-485 -12 c-8 -10 -18 -30 -22 -45 -3 -14 -8 -33 -12 -41 -3 -10 11
-26 41 -48 53 -38 55 -34 -53 -97 l-63 -37 2 -130 1 -130 -31 -3 -31 -3 0 218
0 218 58 34 c74 45 103 67 95 75 -3 3 2 6 12 6 16 0 17 -2 3 -17z m1028 -48
c37 -25 72 -45 76 -45 4 0 8 -99 8 -220 l0 -220 -35 0 -35 0 0 134 0 134 -80
48 c-45 26 -77 50 -73 54 4 3 25 19 46 34 41 30 41 33 21 104 -3 12 -4 22 -2
22 3 0 36 -20 74 -45z m-522 -41 c26 -32 27 -36 13 -58 -19 -29 -48 -37 -79
-22 -34 17 -35 53 -2 87 15 16 30 29 33 28 3 0 19 -16 35 -35z m-724 -69 c0
-27 -4 -35 -18 -35 -10 0 -22 -4 -28 -9 -10 -9 -84 -3 -83 8 0 4 99 59 127 70
1 1 2 -15 2 -34z m1470 -16 l45 -23 -40 -7 c-22 -4 -44 -3 -49 2 -6 5 -18 9
-28 9 -14 0 -18 8 -18 36 0 35 1 36 23 22 12 -8 42 -26 67 -39z m-857 -30 c9
-6 -36 -141 -53 -162 -4 -4 -18 21 -32 57 l-25 64 40 41 c37 36 42 39 51 23 5
-9 14 -20 19 -23z m220 -4 l37 -42 -22 -54 c-12 -30 -24 -58 -28 -62 -4 -4
-17 20 -30 55 -12 35 -26 68 -31 74 -9 11 19 75 31 73 3 0 22 -20 43 -44z
m-94 -107 l34 -87 -38 -36 c-29 -26 -41 -32 -47 -23 -4 7 -8 16 -8 19 0 3 -15
21 -34 40 l-34 34 22 55 c13 30 26 63 29 73 14 39 41 12 76 -75z m-811 60 c17
-9 25 -9 34 0 25 25 38 13 38 -33 0 -48 -16 -59 -40 -30 -8 10 -31 15 -66 15
l-54 0 0 33 c0 32 2 33 33 30 17 -3 42 -9 55 -15z m1612 -13 l0 -35 -59 0
c-43 0 -60 -4 -65 -15 -3 -8 -12 -15 -21 -15 -11 0 -15 11 -15 45 0 49 1 51
30 33 14 -9 24 -9 42 0 13 6 34 13 48 15 14 2 28 5 33 6 4 0 7 -15 7 -34z
m-328 -152 l-3 -113 -41 0 c-34 0 -39 3 -33 18 4 9 21 63 38 119 17 57 34 100
37 95 3 -4 4 -58 2 -119z m-1007 14 c17 -56 31 -108 33 -114 2 -9 -9 -13 -35
-13 l-38 0 -1 115 c-1 63 1 115 5 115 3 0 20 -46 36 -103z m-260 43 c10 -11
26 -20 37 -20 16 0 18 -9 18 -75 l0 -75 -80 0 -80 0 0 45 c0 42 2 45 27 45 14
0 35 -8 46 -17 18 -17 19 -17 33 1 24 33 1 56 -56 56 -49 0 -50 1 -50 30 0 29
2 30 43 30 31 0 49 -6 62 -20z m1595 -10 c0 -29 -1 -30 -50 -30 -40 0 -51 -4
-61 -21 -9 -17 -8 -25 5 -37 14 -14 17 -14 34 1 10 9 31 17 45 17 25 0 27 -3
27 -45 l0 -45 -80 0 -80 0 0 75 c0 66 2 75 18 75 11 0 27 9 37 20 13 14 31 20
62 20 41 0 43 -1 43 -30z"/>
<path d="M1302 1860 c-87 -54 -53 -180 49 -180 52 0 89 33 96 86 4 35 1 46
-23 73 -38 41 -79 48 -122 21z m76 -56 c12 -8 22 -22 22 -30 0 -16 -35 -54
-50 -54 -5 0 -19 9 -30 20 -11 11 -20 25 -20 30 0 12 37 50 48 50 4 0 18 -7
30 -16z"/>
<path d="M1614 1861 c-44 -27 -60 -77 -40 -124 17 -43 41 -57 94 -57 101 0
127 142 35 189 -31 16 -53 14 -89 -8z m80 -60 c33 -37 -5 -88 -51 -70 -43 16
-24 87 23 89 6 0 19 -9 28 -19z"/>
<path d="M1482 1478 c-30 -30 3 -77 40 -57 30 16 16 69 -17 69 -6 0 -16 -5
-23 -12z"/>
<path d="M1520 805 c-7 -8 -8 -15 -2 -15 5 0 15 7 22 15 7 8 8 15 2 15 -5 0
-15 -7 -22 -15z"/>
</g>
</svg>
