<?xml version="1.0" encoding="UTF-8"?>
<!DOCTYPE svg PUBLIC "-//W3C//DTD SVG 1.1//EN" "http://www.w3.org/Graphics/SVG/1.1/DTD/svg11.dtd">
<svg xmlns="http://www.w3.org/2000/svg" version="1.1" width="500px" height="500px" style="shape-rendering:geometricPrecision; text-rendering:geometricPrecision; image-rendering:optimizeQuality; fill-rule:evenodd; clip-rule:evenodd" xmlns:xlink="http://www.w3.org/1999/xlink">
<g><path style="opacity:1" fill="#051933" d="M -0.5,-0.5 C 166.167,-0.5 332.833,-0.5 499.5,-0.5C 499.5,166.167 499.5,332.833 499.5,499.5C 332.833,499.5 166.167,499.5 -0.5,499.5C -0.5,332.833 -0.5,166.167 -0.5,-0.5 Z"/></g>
<g><path style="opacity:1" fill="#042d42" d="M 140.5,263.5 C 139.833,262.833 139.167,262.167 138.5,261.5C 140.43,257.627 141.097,253.294 140.5,248.5C 141.391,247.89 142.391,247.557 143.5,247.5C 143.5,252.167 143.5,256.833 143.5,261.5C 144.833,261.5 146.167,261.5 147.5,261.5C 147.666,252.494 147.5,243.494 147,234.5C 144.586,232.709 142.086,231.043 139.5,229.5C 140.428,233.607 138.762,236.273 134.5,237.5C 133.978,239.219 132.978,240.552 131.5,241.5C 130.305,241.134 129.639,240.301 129.5,239C 130.744,236.618 132.577,234.785 135,233.5C 135.49,231.455 135.323,229.455 134.5,227.5C 134.343,226.127 134.51,224.793 135,223.5C 136.33,224.582 137.83,225.249 139.5,225.5C 146.289,229.396 153.289,233.063 160.5,236.5C 161.684,216.873 154.684,200.873 139.5,188.5C 139.44,187.957 139.107,187.624 138.5,187.5C 137.253,189.006 137.253,190.506 138.5,192C 137.473,192.513 136.473,193.013 135.5,193.5C 135.908,190.401 134.741,188.067 132,186.5C 131.501,191.155 131.334,195.821 131.5,200.5C 131.778,202.346 131.111,203.68 129.5,204.5C 128.081,203.995 127.415,202.995 127.5,201.5C 127.672,200.508 127.338,199.842 126.5,199.5C 126.5,198.167 126.5,196.833 126.5,195.5C 126.849,187.014 122.849,183.18 114.5,184C 112.907,184.949 111.574,186.115 110.5,187.5C 108.801,187.527 107.467,188.194 106.5,189.5C 106.262,187.596 105.262,186.262 103.5,185.5C 103.5,184.5 103.5,183.5 103.5,182.5C 104.5,182.5 105.5,182.5 106.5,182.5C 107.5,185.167 108.5,185.167 109.5,182.5C 107.833,181.833 106.167,181.167 104.5,180.5C 106.256,179.448 106.923,177.781 106.5,175.5C 108.179,175.285 109.179,175.952 109.5,177.5C 111.343,181.009 114.343,182.343 118.5,181.5C 118.5,178.833 118.5,176.167 118.5,173.5C 119.283,171.657 119.95,169.657 120.5,167.5C 117.938,166.359 115.272,165.526 112.5,165C 111.748,164.329 111.414,163.496 111.5,162.5C 116.277,163.22 120.61,165.053 124.5,168C 128.165,172.634 131.332,177.468 134,182.5C 133.664,174.448 130.164,167.948 123.5,163C 106.499,154.861 92.9991,158.694 83,174.5C 81.5644,177.143 81.3977,179.81 82.5,182.5C 83.1835,182.137 83.8501,181.804 84.5,181.5C 84.1193,182.931 83.1193,183.764 81.5,184C 82.6226,185.044 83.9559,185.71 85.5,186C 85.2716,186.399 84.9382,186.565 84.5,186.5C 81.8881,188.052 80.5548,190.386 80.5,193.5C 79.9348,195.42 78.9348,197.087 77.5,198.5C 76.4317,195.182 76.2651,191.849 77,188.5C 61.0975,200.637 54.2642,216.637 56.5,236.5C 60.1836,234.472 63.8503,232.472 67.5,230.5C 68.2279,232.291 69.2279,232.958 70.5,232.5C 70.2172,233.289 69.7172,233.956 69,234.5C 68.5002,243.494 68.3336,252.494 68.5,261.5C 69.8333,261.5 71.1667,261.5 72.5,261.5C 72.5,256.5 72.5,251.5 72.5,246.5C 74.1187,249.548 75.1187,252.881 75.5,256.5C 75.5,257.833 75.5,259.167 75.5,260.5C 76.9187,261.451 78.5853,261.784 80.5,261.5C 80.238,260.022 80.5713,258.689 81.5,257.5C 82.1411,258.993 83.1411,259.993 84.5,260.5C 86.9479,261.473 89.6146,261.806 92.5,261.5C 91.2796,250.855 90.2796,240.188 89.5,229.5C 89.1924,227.076 89.5258,224.743 90.5,222.5C 91.1835,222.863 91.8501,223.196 92.5,223.5C 93.0738,228.183 93.7404,232.85 94.5,237.5C 95.1667,239.5 95.8333,241.5 96.5,243.5C 97.5717,245.882 98.7383,248.216 100,250.5C 100.717,249.956 101.217,249.289 101.5,248.5C 102.492,248.328 103.158,248.662 103.5,249.5C 104.075,251.411 105.075,253.078 106.5,254.5C 107.314,256.273 108.648,256.773 110.5,256C 111.5,255 112.5,254 113.5,253C 112.663,251.989 112.33,250.822 112.5,249.5C 112.435,249.062 112.601,248.728 113,248.5C 113.582,252.251 115.749,253.918 119.5,253.5C 119.596,257.731 117.93,261.065 114.5,263.5C 92.8333,263.5 71.1667,263.5 49.5,263.5C 49.5,227.5 49.5,191.5 49.5,155.5C 88.1667,155.5 126.833,155.5 165.5,155.5C 165.5,191.5 165.5,227.5 165.5,263.5C 157.167,263.5 148.833,263.5 140.5,263.5 Z"/></g>
<g><path style="opacity:1" fill="#e9ded0" d="M 111.5,162.5 C 97.2284,161.449 88.2284,167.783 84.5,181.5C 83.8501,181.804 83.1835,182.137 82.5,182.5C 81.3977,179.81 81.5644,177.143 83,174.5C 92.9991,158.694 106.499,154.861 123.5,163C 130.164,167.948 133.664,174.448 134,182.5C 131.332,177.468 128.165,172.634 124.5,168C 120.61,165.053 116.277,163.22 111.5,162.5 Z"/></g>
<g><path style="opacity:1" fill="#cdc5be" d="M 120.5,170.5 C 125.585,174.327 127.585,179.327 126.5,185.5C 124.932,183.8 123.099,182.466 121,181.5C 120.501,177.848 120.335,174.182 120.5,170.5 Z"/></g>
<g><path style="opacity:1" fill="#c7c0b9" d="M 118.5,173.5 C 118.5,176.167 118.5,178.833 118.5,181.5C 114.343,182.343 111.343,181.009 109.5,177.5C 110.117,177.389 110.617,177.056 111,176.5C 111.176,173.118 111.676,169.785 112.5,166.5C 113.521,170.533 113.687,174.533 113,178.5C 114,179.833 115,179.833 116,178.5C 116.176,175.118 116.676,171.785 117.5,168.5C 118.452,170.045 118.785,171.712 118.5,173.5 Z"/></g>
<g><path style="opacity:1" fill="#e6decf" d="M 106.5,182.5 C 107.5,182.5 108.5,182.5 109.5,182.5C 108.5,185.167 107.5,185.167 106.5,182.5 Z"/></g>
<g><path style="opacity:1" fill="#d3c9c1" d="M 103.5,185.5 C 105.262,186.262 106.262,187.596 106.5,189.5C 108.332,196.356 105.665,200.356 98.5,201.5C 89.9884,200.146 87.4884,195.48 91,187.5C 94.6163,183.142 98.783,182.476 103.5,185.5 Z"/></g>
<g><path style="opacity:1" fill="#d4cac1" d="M 126.5,195.5 C 123.949,200.273 119.949,202.106 114.5,201C 108.444,197.78 107.111,193.28 110.5,187.5C 111.574,186.115 112.907,184.949 114.5,184C 122.849,183.18 126.849,187.014 126.5,195.5 Z"/></g>
<g><path style="opacity:1" fill="#123245" d="M 95.5,186.5 C 100.713,185.762 103.713,187.928 104.5,193C 102.295,198.855 98.4619,200.022 93,196.5C 91.8613,192.579 92.6946,189.246 95.5,186.5 Z"/></g>
<g><path style="opacity:1" fill="#e0d3cb" d="M 77.5,198.5 C 79.4743,203.335 83.141,206.002 88.5,206.5C 89.8333,209.833 89.8333,213.167 88.5,216.5C 81.6066,221.438 74.6066,226.105 67.5,230.5C 63.8503,232.472 60.1836,234.472 56.5,236.5C 54.2642,216.637 61.0975,200.637 77,188.5C 76.2651,191.849 76.4317,195.182 77.5,198.5 Z"/></g>
<g><path style="opacity:1" fill="#102f43" d="M 114.5,186.5 C 123.244,186.413 125.577,190.246 121.5,198C 115.648,200.04 112.315,198.04 111.5,192C 111.863,189.808 112.863,187.974 114.5,186.5 Z"/></g>
<g><path style="opacity:1" fill="#f2f4f4" d="M 325.5,191.5 C 336.172,191.333 346.839,191.5 357.5,192C 360.059,194.925 360.059,197.925 357.5,201C 353.848,201.499 350.182,201.665 346.5,201.5C 346.5,215.167 346.5,228.833 346.5,242.5C 343.167,242.5 339.833,242.5 336.5,242.5C 336.5,228.833 336.5,215.167 336.5,201.5C 332.818,201.665 329.152,201.499 325.5,201C 322.888,197.836 322.888,194.669 325.5,191.5 Z"/></g>
<g><path style="opacity:1" fill="#f5f6f5" d="M 197.5,191.5 C 205.238,191.144 212.905,191.644 220.5,193C 229.103,196.379 231.936,202.546 229,211.5C 228.028,213.305 226.861,214.972 225.5,216.5C 233.306,222.295 234.472,229.295 229,237.5C 227.421,239.041 225.587,240.208 223.5,241C 214.916,242.41 206.25,242.91 197.5,242.5C 197.5,225.5 197.5,208.5 197.5,191.5 Z"/></g>
<g><path style="opacity:1" fill="#f1f3f3" d="M 373.5,191.5 C 379.523,190.777 385.023,192.111 390,195.5C 390.667,196.5 390.667,197.5 390,198.5C 388.471,199.729 387.304,201.229 386.5,203C 382.283,201.925 377.949,201.592 373.5,202C 370.068,204.367 369.735,207.034 372.5,210C 379.659,211.827 385.826,215.327 391,220.5C 394.004,234.481 388.338,241.814 374,242.5C 368.301,242.566 363.801,240.399 360.5,236C 361.232,233.274 362.732,231.107 365,229.5C 370.144,232.998 375.477,233.331 381,230.5C 381.808,228.421 381.641,226.421 380.5,224.5C 375.575,222.244 370.575,220.078 365.5,218C 356.745,205.652 359.411,196.819 373.5,191.5 Z"/></g>
<g><path style="opacity:1" fill="#dfd2ca" d="M 139.5,188.5 C 154.684,200.873 161.684,216.873 160.5,236.5C 153.289,233.063 146.289,229.396 139.5,225.5C 135.926,222.034 131.926,219.034 127.5,216.5C 126.167,213.167 126.167,209.833 127.5,206.5C 137.592,204.272 141.592,198.272 139.5,188.5 Z"/></g>
<g><path style="opacity:1" fill="#eff1f2" d="M 267.5,192.5 C 267.838,195.157 267.171,197.49 265.5,199.5C 259.681,200.167 254.014,200.833 248.5,201.5C 248.5,205.167 248.5,208.833 248.5,212.5C 254.176,212.334 259.843,212.501 265.5,213C 267.706,215.209 268.04,217.709 266.5,220.5C 260.537,221.496 254.537,221.829 248.5,221.5C 248.5,225.167 248.5,228.833 248.5,232.5C 254.176,232.334 259.843,232.501 265.5,233C 266.571,233.852 267.571,234.685 268.5,235.5C 268.756,237.792 268.423,239.959 267.5,242C 257.839,242.5 248.172,242.666 238.5,242.5C 237.338,226.005 237.172,209.338 238,192.5C 247.931,191.171 257.765,191.171 267.5,192.5 Z"/></g>
<g><path style="opacity:1" fill="#f2f4f4" d="M 301.5,191.5 C 304.448,191.223 307.281,191.556 310,192.5C 316.465,209.089 322.632,225.756 328.5,242.5C 324.5,242.5 320.5,242.5 316.5,242.5C 317.097,234.313 313.431,230.979 305.5,232.5C 302.833,232.667 300.167,232.833 297.5,233C 296.167,236 294.833,239 293.5,242C 289.848,242.499 286.182,242.665 282.5,242.5C 288.545,225.407 294.878,208.407 301.5,191.5 Z"/></g>
<g><path style="opacity:1" fill="#f5f6f7" d="M 456.5,191.5 C 459.833,191.5 463.167,191.5 466.5,191.5C 466.667,208.503 466.5,225.503 466,242.5C 463,243.833 460,243.833 457,242.5C 456.5,225.503 456.333,208.503 456.5,191.5 Z"/></g>
<g><path style="opacity:1" fill="#dacec1" d="M 135.5,193.5 C 135.924,197.002 134.59,199.335 131.5,200.5C 131.334,195.821 131.501,191.155 132,186.5C 134.741,188.067 135.908,190.401 135.5,193.5 Z"/></g>
<g><path style="opacity:1" fill="#f4f5f5" d="M 422.5,191.5 C 425.5,191.5 428.5,191.5 431.5,191.5C 437.9,208.366 443.9,225.366 449.5,242.5C 445.833,242.5 442.167,242.5 438.5,242.5C 437.801,239.427 436.801,236.427 435.5,233.5C 429.833,232.167 424.167,232.167 418.5,233.5C 417.642,236.62 416.642,239.62 415.5,242.5C 411.833,242.5 408.167,242.5 404.5,242.5C 410.1,225.367 416.1,208.367 422.5,191.5 Z"/></g>
<g><path style="opacity:1" fill="#d9cdbf" d="M 84.5,186.5 C 84.8266,191.214 84.4933,195.88 83.5,200.5C 81.1507,198.796 80.1507,196.463 80.5,193.5C 80.5548,190.386 81.8881,188.052 84.5,186.5 Z"/></g>
<g><path style="opacity:1" fill="#c4c9cc" d="M 267.5,192.5 C 270.276,195.51 269.942,198.344 266.5,201C 260.509,201.499 254.509,201.666 248.5,201.5C 254.014,200.833 259.681,200.167 265.5,199.5C 267.171,197.49 267.838,195.157 267.5,192.5 Z"/></g>
<g><path style="opacity:1" fill="#0c1c33" d="M 208.5,201.5 C 211.187,201.336 213.854,201.503 216.5,202C 220.5,205.333 220.5,208.667 216.5,212C 213.854,212.497 211.187,212.664 208.5,212.5C 208.5,208.833 208.5,205.167 208.5,201.5 Z"/></g>
<g><path style="opacity:1" fill="#121e34" d="M 430.5,220.5 C 429.848,221.725 428.681,222.392 427,222.5C 425.615,222.486 424.449,222.152 423.5,221.5C 425.313,208.945 427.647,208.611 430.5,220.5 Z"/></g>
<g><path style="opacity:1" fill="#131f37" d="M 308.5,220.5 C 306.721,222.344 304.388,223.01 301.5,222.5C 302.045,218.529 303.379,214.862 305.5,211.5C 307.494,214.15 308.494,217.15 308.5,220.5 Z"/></g>
<g><path style="opacity:1" fill="#616e7d" d="M 308.5,220.5 C 309.404,221.209 309.737,222.209 309.5,223.5C 306.615,223.806 303.948,223.473 301.5,222.5C 304.388,223.01 306.721,222.344 308.5,220.5 Z"/></g>
<g><path style="opacity:1" fill="#697786" d="M 430.5,220.5 C 431.404,221.209 431.737,222.209 431.5,223.5C 428.428,223.817 425.428,223.484 422.5,222.5C 422.624,221.893 422.957,221.56 423.5,221.5C 424.449,222.152 425.615,222.486 427,222.5C 428.681,222.392 429.848,221.725 430.5,220.5 Z"/></g>
<g><path style="opacity:1" fill="#747c87" d="M 216.5,222.5 C 213.833,222.5 211.167,222.5 208.5,222.5C 208.5,225.833 208.5,229.167 208.5,232.5C 207.518,229.038 207.185,225.371 207.5,221.5C 210.713,221.19 213.713,221.523 216.5,222.5 Z"/></g>
<g><path style="opacity:1" fill="#091c34" d="M 216.5,222.5 C 221.151,223.174 222.651,225.841 221,230.5C 217.078,232.312 212.911,232.979 208.5,232.5C 208.5,229.167 208.5,225.833 208.5,222.5C 211.167,222.5 213.833,222.5 216.5,222.5 Z"/></g>
<g><path style="opacity:1" fill="#d2c5b9" d="M 134.5,227.5 C 135.323,229.455 135.49,231.455 135,233.5C 132.577,234.785 130.744,236.618 129.5,239C 129.639,240.301 130.305,241.134 131.5,241.5C 133.291,242.787 134.957,244.287 136.5,246C 134.925,250.464 133.425,254.964 132,259.5C 129.894,261.291 127.394,261.958 124.5,261.5C 124.273,248.328 125.606,235.328 128.5,222.5C 131.155,223.497 133.155,225.164 134.5,227.5 Z"/></g>
<g><path style="opacity:1" fill="#d2c5b9" d="M 143.5,247.5 C 143.649,246.448 143.483,245.448 143,244.5C 139.324,242.973 136.49,240.64 134.5,237.5C 138.762,236.273 140.428,233.607 139.5,229.5C 142.086,231.043 144.586,232.709 147,234.5C 147.5,243.494 147.666,252.494 147.5,261.5C 146.167,261.5 144.833,261.5 143.5,261.5C 143.5,256.833 143.5,252.167 143.5,247.5 Z"/></g>
<g><path style="opacity:1" fill="#d3c5b9" d="M 72.5,246.5 C 72.5,251.5 72.5,256.5 72.5,261.5C 71.1667,261.5 69.8333,261.5 68.5,261.5C 68.3336,252.494 68.5002,243.494 69,234.5C 69.7172,233.956 70.2172,233.289 70.5,232.5C 72.7567,232.038 74.7567,231.038 76.5,229.5C 76.6826,233.484 78.3493,236.65 81.5,239C 79.0993,241.062 76.4326,242.729 73.5,244C 72.7476,244.671 72.4142,245.504 72.5,246.5 Z"/></g>
<g><path style="opacity:1" fill="#bfbab4" d="M 63.5,236.5 C 65.1765,237.183 65.8432,238.517 65.5,240.5C 64.1779,240.33 63.0113,240.663 62,241.5C 60.9326,240.809 59.7659,240.309 58.5,240C 60.2331,238.811 61.8998,237.644 63.5,236.5 Z"/></g>
<g><path style="opacity:1" fill="#bebab4" d="M 150.5,236.5 C 159.627,239.554 159.627,240.887 150.5,240.5C 150.5,239.167 150.5,237.833 150.5,236.5 Z"/></g>
<g><path style="opacity:1" fill="#0d3044" d="M 111.5,162.5 C 111.414,163.496 111.748,164.329 112.5,165C 115.272,165.526 117.938,166.359 120.5,167.5C 119.95,169.657 119.283,171.657 118.5,173.5C 118.785,171.712 118.452,170.045 117.5,168.5C 116.676,171.785 116.176,175.118 116,178.5C 115,179.833 114,179.833 113,178.5C 113.687,174.533 113.521,170.533 112.5,166.5C 111.676,169.785 111.176,173.118 111,176.5C 110.617,177.056 110.117,177.389 109.5,177.5C 109.179,175.952 108.179,175.285 106.5,175.5C 106.923,177.781 106.256,179.448 104.5,180.5C 106.167,181.167 107.833,181.833 109.5,182.5C 108.5,182.5 107.5,182.5 106.5,182.5C 105.5,182.5 104.5,182.5 103.5,182.5C 103.5,183.5 103.5,184.5 103.5,185.5C 98.783,182.476 94.6163,183.142 91,187.5C 87.4884,195.48 89.9884,200.146 98.5,201.5C 105.665,200.356 108.332,196.356 106.5,189.5C 107.467,188.194 108.801,187.527 110.5,187.5C 107.111,193.28 108.444,197.78 114.5,201C 119.949,202.106 123.949,200.273 126.5,195.5C 126.5,196.833 126.5,198.167 126.5,199.5C 125.292,202.044 123.292,203.378 120.5,203.5C 120.335,207.182 120.501,210.848 121,214.5C 122.076,211.64 122.909,208.64 123.5,205.5C 124.521,203.812 125.855,202.479 127.5,201.5C 127.415,202.995 128.081,203.995 129.5,204.5C 131.111,203.68 131.778,202.346 131.5,200.5C 134.59,199.335 135.924,197.002 135.5,193.5C 136.473,193.013 137.473,192.513 138.5,192C 137.253,190.506 137.253,189.006 138.5,187.5C 139.107,187.624 139.44,187.957 139.5,188.5C 141.592,198.272 137.592,204.272 127.5,206.5C 126.167,209.833 126.167,213.167 127.5,216.5C 131.926,219.034 135.926,222.034 139.5,225.5C 137.83,225.249 136.33,224.582 135,223.5C 134.51,224.793 134.343,226.127 134.5,227.5C 133.155,225.164 131.155,223.497 128.5,222.5C 125.606,235.328 124.273,248.328 124.5,261.5C 127.394,261.958 129.894,261.291 132,259.5C 133.425,254.964 134.925,250.464 136.5,246C 134.957,244.287 133.291,242.787 131.5,241.5C 132.978,240.552 133.978,239.219 134.5,237.5C 136.49,240.64 139.324,242.973 143,244.5C 143.483,245.448 143.649,246.448 143.5,247.5C 142.391,247.557 141.391,247.89 140.5,248.5C 138.818,251.164 137.485,254.664 136.5,259C 136.684,260.376 137.351,261.209 138.5,261.5C 139.167,262.167 139.833,262.833 140.5,263.5C 131.833,263.5 123.167,263.5 114.5,263.5C 117.93,261.065 119.596,257.731 119.5,253.5C 115.749,253.918 113.582,252.251 113,248.5C 112.601,248.728 112.435,249.062 112.5,249.5C 112.167,249.5 111.833,249.5 111.5,249.5C 111.182,246.695 110.015,244.361 108,242.5C 106.222,244.691 104.722,247.024 103.5,249.5C 103.158,248.662 102.492,248.328 101.5,248.5C 102.545,245.886 103.045,243.22 103,240.5C 102.586,240.043 102.086,239.709 101.5,239.5C 99.8144,240.857 98.1477,242.19 96.5,243.5C 95.8333,241.5 95.1667,239.5 94.5,237.5C 95.2216,237.918 95.7216,238.584 96,239.5C 99.3493,236.318 102.516,232.985 105.5,229.5C 101.507,225.676 97.3404,222.009 93,218.5C 92.5065,220.134 92.3398,221.801 92.5,223.5C 91.8501,223.196 91.1835,222.863 90.5,222.5C 89.5258,224.743 89.1924,227.076 89.5,229.5C 88.6829,227.031 88.1829,224.365 88,221.5C 83.3007,223.694 80.8007,227.361 80.5,232.5C 82.7613,234.455 84.7613,236.622 86.5,239C 84.431,241.547 82.0977,243.88 79.5,246C 81.0926,250.877 82.7593,255.71 84.5,260.5C 83.1411,259.993 82.1411,258.993 81.5,257.5C 80.5713,258.689 80.238,260.022 80.5,261.5C 78.5853,261.784 76.9187,261.451 75.5,260.5C 76.8333,260.5 78.1667,260.5 79.5,260.5C 78.8466,256.038 77.6799,251.705 76,247.5C 75.502,250.482 75.3354,253.482 75.5,256.5C 75.1187,252.881 74.1187,249.548 72.5,246.5C 72.4142,245.504 72.7476,244.671 73.5,244C 76.4326,242.729 79.0993,241.062 81.5,239C 78.3493,236.65 76.6826,233.484 76.5,229.5C 74.7567,231.038 72.7567,232.038 70.5,232.5C 69.2279,232.958 68.2279,232.291 67.5,230.5C 74.6066,226.105 81.6066,221.438 88.5,216.5C 89.8333,213.167 89.8333,209.833 88.5,206.5C 83.141,206.002 79.4743,203.335 77.5,198.5C 78.9348,197.087 79.9348,195.42 80.5,193.5C 80.1507,196.463 81.1507,198.796 83.5,200.5C 84.4933,195.88 84.8266,191.214 84.5,186.5C 84.9382,186.565 85.2716,186.399 85.5,186C 83.9559,185.71 82.6226,185.044 81.5,184C 83.1193,183.764 84.1193,182.931 84.5,181.5C 88.2284,167.783 97.2284,161.449 111.5,162.5 Z"/></g>
<g><path style="opacity:1" fill="#efe3d5" d="M 113.5,239.5 C 115.886,240.373 117.886,241.873 119.5,244C 118.333,246.5 117.167,249 116,251.5C 114.694,248.388 113.528,245.221 112.5,242C 112.743,241.098 113.077,240.265 113.5,239.5 Z"/></g>
<g><path style="opacity:1" fill="#ccbfb4" d="M 107.5,231.5 C 112.443,234.09 112.61,236.757 108,239.5C 106.167,239 105,237.833 104.5,236C 105.315,234.357 106.315,232.857 107.5,231.5 Z"/></g>
<g><path style="opacity:1" fill="#d3c7bb" d="M 103.5,223.5 C 106.304,222.362 109.304,222.195 112.5,223C 109.584,224.818 106.584,224.984 103.5,223.5 Z"/></g>
<g><path style="opacity:1" fill="#f0e4d6" d="M 123.5,217.5 C 124.124,217.917 124.457,218.584 124.5,219.5C 123.259,226.194 121.925,232.86 120.5,239.5C 116.833,236.5 113.5,233.167 110.5,229.5C 114.854,225.478 119.187,221.478 123.5,217.5 Z"/></g>
<g><path style="opacity:1" fill="#f3e6d8" d="M 94.5,237.5 C 93.7404,232.85 93.0738,228.183 92.5,223.5C 92.3398,221.801 92.5065,220.134 93,218.5C 97.3404,222.009 101.507,225.676 105.5,229.5C 102.516,232.985 99.3493,236.318 96,239.5C 95.7216,238.584 95.2216,237.918 94.5,237.5 Z"/></g>
<g><path style="opacity:1" fill="#596d76" d="M 98.5,204.5 C 99.209,203.596 100.209,203.263 101.5,203.5C 101.827,208.544 101.494,213.544 100.5,218.5C 99.8933,218.376 99.56,218.043 99.5,217.5C 100.163,215.527 100.496,213.361 100.5,211C 100.467,208.39 99.8001,206.223 98.5,204.5 Z"/></g>
<g><path style="opacity:1" fill="#556b73" d="M 117.5,204.5 C 116.2,206.223 115.533,208.39 115.5,211C 115.533,213.61 116.2,215.777 117.5,217.5C 116.791,218.404 115.791,218.737 114.5,218.5C 114.5,213.5 114.5,208.5 114.5,203.5C 115.791,203.263 116.791,203.596 117.5,204.5 Z"/></g>
<g><path style="opacity:1" fill="#d1c8bf" d="M 105.5,201.5 C 106.468,203.607 106.802,205.941 106.5,208.5C 107.5,208.5 108.5,208.5 109.5,208.5C 109.337,206.143 109.503,203.81 110,201.5C 110.414,201.957 110.914,202.291 111.5,202.5C 112.495,208.128 112.829,213.794 112.5,219.5C 109.5,219.5 106.5,219.5 103.5,219.5C 102.947,213.208 103.614,207.208 105.5,201.5 Z"/></g>
<g><path style="opacity:1" fill="#243c4d" d="M 106.5,210.5 C 110.961,211.048 111.461,212.715 108,215.5C 105.491,214.347 104.991,212.68 106.5,210.5 Z"/></g>
<g><path style="opacity:1" fill="#cfc6be" d="M 88.5,199.5 C 90.3634,201.705 92.6967,203.039 95.5,203.5C 95.6653,207.182 95.4986,210.848 95,214.5C 94.4789,209.714 92.4789,205.714 89,202.5C 88.5172,201.552 88.3505,200.552 88.5,199.5 Z"/></g>
<g><path style="opacity:1" fill="#d5cac1" d="M 126.5,199.5 C 127.338,199.842 127.672,200.508 127.5,201.5C 125.855,202.479 124.521,203.812 123.5,205.5C 122.909,208.64 122.076,211.64 121,214.5C 120.501,210.848 120.335,207.182 120.5,203.5C 123.292,203.378 125.292,202.044 126.5,199.5 Z"/></g>
<g><path style="opacity:1" fill="#e1d4c8" d="M 117.5,204.5 C 117.5,208.833 117.5,213.167 117.5,217.5C 116.2,215.777 115.533,213.61 115.5,211C 115.533,208.39 116.2,206.223 117.5,204.5 Z"/></g>
<g><path style="opacity:1" fill="#e0d2c8" d="M 98.5,204.5 C 99.8001,206.223 100.467,208.39 100.5,211C 100.496,213.361 100.163,215.527 99.5,217.5C 98.5151,213.366 98.1818,209.032 98.5,204.5 Z"/></g>
<g><path style="opacity:1" fill="#ece0d2" d="M 115.5,190.5 C 119.138,189.737 120.638,191.07 120,194.5C 115.415,196.413 113.915,195.079 115.5,190.5 Z"/></g>
<g><path style="opacity:1" fill="#ede2d4" d="M 96.5,190.5 C 100.138,189.737 101.638,191.07 101,194.5C 96.4155,196.413 94.9155,195.079 96.5,190.5 Z"/></g>
<g><path style="opacity:1" fill="#d7ccc4" d="M 104.5,180.5 C 102.958,181.301 101.292,181.634 99.5,181.5C 98.564,177.265 98.2307,172.931 98.5,168.5C 99.3213,171.641 99.8213,174.975 100,178.5C 101.545,179.821 102.711,179.488 103.5,177.5C 102.236,173.847 102.236,170.18 103.5,166.5C 104.776,171.226 105.11,175.893 104.5,180.5 Z"/></g>
<g><path style="opacity:1" fill="#5d767c" d="M 98.5,168.5 C 98.2307,172.931 98.564,177.265 99.5,181.5C 98.1999,179.777 97.5332,177.61 97.5,175C 97.5039,172.639 97.8373,170.473 98.5,168.5 Z"/></g>
<g><path style="opacity:1" fill="#cfc5bf" d="M 94.5,170.5 C 95.6433,173.976 95.8099,177.642 95,181.5C 90.2066,185.639 88.54,184.306 90,177.5C 91.0121,174.798 92.5121,172.465 94.5,170.5 Z"/></g>
<g><path style="opacity:1" fill="#cfc7be" d="M 106.5,166.5 C 107.5,166.5 108.5,166.5 109.5,166.5C 109.318,168.591 109.652,170.591 110.5,172.5C 108.833,175.167 107.167,175.167 105.5,172.5C 106.348,170.591 106.682,168.591 106.5,166.5 Z"/></g>
<g><path style="opacity:1" fill="#3d4752" d="M 268.5,235.5 C 270.103,238.768 269.603,241.768 267,244.5C 257.402,243.845 247.902,243.178 238.5,242.5C 248.172,242.666 257.839,242.5 267.5,242C 268.423,239.959 268.756,237.792 268.5,235.5 Z"/></g>
<g><path style="opacity:1" fill="#ded1c9" d="M 151.5,243.5 C 154.388,244.078 157.388,244.078 160.5,243.5C 160.5,244.5 160.5,245.5 160.5,246.5C 157.518,246.104 154.851,246.771 152.5,248.5C 151.548,246.955 151.215,245.288 151.5,243.5 Z"/></g>
<g><path style="opacity:1" fill="#d6cbc4" d="M 55.5,243.5 C 58.5826,244.066 61.5826,244.066 64.5,243.5C 65.8333,245.167 65.8333,246.833 64.5,248.5C 61.8066,246.73 58.8066,246.063 55.5,246.5C 55.5,245.5 55.5,244.5 55.5,243.5 Z"/></g>
<g><path style="opacity:1" fill="#eee3d4" d="M 101.5,248.5 C 101.217,249.289 100.717,249.956 100,250.5C 98.7383,248.216 97.5717,245.882 96.5,243.5C 98.1477,242.19 99.8144,240.857 101.5,239.5C 102.086,239.709 102.586,240.043 103,240.5C 103.045,243.22 102.545,245.886 101.5,248.5 Z"/></g>
<g><path style="opacity:1" fill="#ded0c7" d="M 111.5,249.5 C 110.215,251.452 108.549,253.118 106.5,254.5C 105.075,253.078 104.075,251.411 103.5,249.5C 104.722,247.024 106.222,244.691 108,242.5C 110.015,244.361 111.182,246.695 111.5,249.5 Z"/></g>
<g><path style="opacity:1" fill="#d1c4b8" d="M 89.5,229.5 C 90.2796,240.188 91.2796,250.855 92.5,261.5C 89.6146,261.806 86.9479,261.473 84.5,260.5C 82.7593,255.71 81.0926,250.877 79.5,246C 82.0977,243.88 84.431,241.547 86.5,239C 84.7613,236.622 82.7613,234.455 80.5,232.5C 80.8007,227.361 83.3007,223.694 88,221.5C 88.1829,224.365 88.6829,227.031 89.5,229.5 Z"/></g>
<g><path style="opacity:1" fill="#bbb2a8" d="M 75.5,260.5 C 75.5,259.167 75.5,257.833 75.5,256.5C 75.3354,253.482 75.502,250.482 76,247.5C 77.6799,251.705 78.8466,256.038 79.5,260.5C 78.1667,260.5 76.8333,260.5 75.5,260.5 Z"/></g>
<g><path style="opacity:1" fill="#7f8a88" d="M 111.5,249.5 C 111.833,249.5 112.167,249.5 112.5,249.5C 112.33,250.822 112.663,251.989 113.5,253C 112.5,254 111.5,255 110.5,256C 108.648,256.773 107.314,256.273 106.5,254.5C 108.549,253.118 110.215,251.452 111.5,249.5 Z"/></g>
<g><path style="opacity:1" fill="#d4c9be" d="M 155.5,249.5 C 157.167,249.5 158.833,249.5 160.5,249.5C 160.5,250.833 160.5,252.167 160.5,253.5C 158.473,253.338 156.473,253.505 154.5,254C 153.179,255.545 153.512,256.711 155.5,257.5C 157.071,256.691 158.738,256.357 160.5,256.5C 160.5,258.167 160.5,259.833 160.5,261.5C 157.167,261.5 153.833,261.5 150.5,261.5C 150.5,258.5 150.5,255.5 150.5,252.5C 152.933,252.727 154.599,251.727 155.5,249.5 Z"/></g>
<g><path style="opacity:1" fill="#bcb3a7" d="M 140.5,248.5 C 141.097,253.294 140.43,257.627 138.5,261.5C 137.351,261.209 136.684,260.376 136.5,259C 137.485,254.664 138.818,251.164 140.5,248.5 Z"/></g>
<g><path style="opacity:1" fill="#ccc2b9" d="M 55.5,249.5 C 59.1817,249.555 62.515,250.555 65.5,252.5C 65.5,255.5 65.5,258.5 65.5,261.5C 62.1667,261.5 58.8333,261.5 55.5,261.5C 55.5,259.5 55.5,257.5 55.5,255.5C 57.4918,255.328 59.1585,255.995 60.5,257.5C 62.4879,256.711 62.8213,255.545 61.5,254C 59.5273,253.505 57.5273,253.338 55.5,253.5C 55.5,252.167 55.5,250.833 55.5,249.5 Z"/></g>
</svg>
